<?xml version="1.0" encoding="utf-8"?>
<!-- Generator: Adobe Illustrator 16.0.0, SVG Export Plug-In . SVG Version: 6.00 Build 0)  -->
<!DOCTYPE svg PUBLIC "-//W3C//DTD SVG 1.1//EN" "http://www.w3.org/Graphics/SVG/1.1/DTD/svg11.dtd">
<svg version="1.1" id="레이어_1" xmlns="http://www.w3.org/2000/svg" xmlns:xlink="http://www.w3.org/1999/xlink" x="0px"
	 y="0px" width="304.475px" height="247.409px" viewBox="0 0 304.475 247.409" enable-background="new 0 0 304.475 247.409"
	 xml:space="preserve">
<g>
	<g>
		<polygon fill="#FFFFFF" points="6.131,209.174 12.818,209.174 20.688,168.706 13.996,168.706 		"/>
		<polygon fill="#FFFFFF" points="42.092,196.693 41.943,196.741 35.697,174.759 28.961,174.759 22.27,209.174 29.006,209.174 
			33.275,187.215 33.428,187.168 39.668,209.174 46.357,209.174 53.047,174.759 46.357,174.759 		"/>
		<polygon fill="#FFFFFF" points="51.66,180.124 66.23,180.124 60.582,209.174 67.297,209.174 72.945,180.124 89.148,180.124 
			90.193,174.759 52.703,174.759 		"/>
		<polygon fill="#FFFFFF" points="164.338,203.81 156.754,203.81 144.18,203.81 149.828,174.759 143.092,174.759 137.443,203.81 
			130.215,203.81 117.639,203.81 123.285,174.759 116.549,174.759 110.904,203.81 89.939,203.81 91.832,194.069 103.393,194.069 
			104.436,188.703 92.877,188.703 94.543,180.124 108.088,180.124 109.131,174.759 88.85,174.759 82.16,209.174 109.861,209.174 
			129.17,209.174 136.4,209.174 155.713,209.174 163.297,209.174 166.643,209.174 169.986,209.174 176.678,174.759 169.986,174.759 
					"/>
		<path fill="#FFFFFF" d="M197.311,174.261c-3.547,0-6.605,1.087-9.18,3.263c-2.576,2.174-4.246,5.24-5.014,9.194l-2.039,10.495
			c-0.777,3.989-0.262,7.061,1.553,9.218c1.809,2.16,4.557,3.239,8.244,3.239c2.854,0,5.318-0.563,7.396-1.689
			c2.076-1.127,3.727-2.431,4.943-3.911l2.492-12.813h-11.252l-0.918,4.728h4.539l-1.201,6.17c-0.551,0.71-1.176,1.246-1.885,1.607
			c-0.709,0.362-1.732,0.543-3.072,0.543c-1.795,0-3.051-0.577-3.762-1.737c-0.715-1.16-0.834-2.946-0.365-5.359l2.051-10.554
			c0.459-2.365,1.266-4.128,2.424-5.287c1.152-1.161,2.549-1.739,4.189-1.739c1.67,0,2.824,0.446,3.463,1.338
			c0.637,0.895,0.793,2.31,0.463,4.253h6.311l0.074-0.143c0.598-3.479,0.123-6.152-1.42-8.016
			C203.801,175.196,201.123,174.261,197.311,174.261z"/>
		<polygon fill="#FFFFFF" points="258.701,196.693 258.549,196.741 252.305,174.759 245.57,174.759 239.922,203.81 218.959,203.81 
			220.854,194.069 232.412,194.069 233.453,188.703 221.896,188.703 223.563,180.124 237.105,180.124 238.148,174.759 
			217.869,174.759 211.178,209.174 238.877,209.174 242.701,209.174 245.615,209.174 249.881,187.215 250.033,187.168 
			256.273,209.174 262.963,209.174 269.654,174.759 262.965,174.759 		"/>
		<polygon fill="#FFFFFF" points="268.941,174.759 267.896,180.124 282.836,180.124 276.014,215.225 282.727,215.225 
			289.549,180.124 297.303,180.124 298.344,174.759 		"/>
	</g>
	<g>
		<path fill="#FFFFFF" d="M85.387,217.9h-5.75l-3.697,19.023h5.748c1.953,0,3.705-0.735,5.266-2.207
			c1.557-1.473,2.563-3.371,3.014-5.696l0.621-3.202c0.451-2.327,0.188-4.227-0.797-5.704C88.807,218.64,87.336,217.9,85.387,217.9z
			 M86.885,225.784l-0.629,3.229c-0.289,1.492-0.803,2.69-1.537,3.592c-0.74,0.903-1.625,1.353-2.662,1.353H80.24l2.545-13.091
			h1.816c1.035,0,1.746,0.451,2.133,1.349C87.125,223.112,87.174,224.302,86.885,225.784z"/>
		<path fill="#FFFFFF" d="M103.033,217.913h-6.207l-3.693,19.011h3.709l1.471-7.564h2.693c0.723,0,1.225,0.261,1.512,0.782
			c0.287,0.525,0.338,1.261,0.152,2.21l-0.248,1.293c-0.131,0.652-0.215,1.293-0.26,1.92c-0.045,0.628,0.061,1.079,0.313,1.359
			h3.842l0.053-0.274c-0.254-0.27-0.381-0.702-0.387-1.3c-0.008-0.598,0.041-1.158,0.145-1.68l0.26-1.346
			c0.223-1.149,0.195-2.106-0.09-2.874c-0.283-0.766-0.879-1.314-1.789-1.647c0.936-0.426,1.697-0.998,2.279-1.719
			c0.586-0.717,0.975-1.574,1.166-2.567c0.342-1.759,0.076-3.133-0.797-4.121C106.281,218.408,104.906,217.913,103.033,217.913z
			 M104.203,223.729c-0.168,0.853-0.488,1.51-0.969,1.97c-0.484,0.465-1.104,0.692-1.861,0.692h-2.482l1.068-5.513h2.498
			c0.748,0,1.271,0.258,1.564,0.771C104.311,222.164,104.371,222.855,104.203,223.729z"/>
		<polygon fill="#FFFFFF" points="110.637,236.924 114.336,236.924 118.033,217.9 114.336,217.9 		"/>
		<polygon fill="#FFFFFF" points="126.6,232.104 126.32,232.794 126.242,232.794 126.242,232.064 125.844,217.9 121.938,217.9 
			123.559,236.924 127.426,236.924 136.439,217.9 132.533,217.9 		"/>
		<polygon fill="#FFFFFF" points="152.338,233.957 140.752,233.957 141.799,228.574 148.188,228.574 148.764,225.609 
			142.373,225.609 143.297,220.866 150.785,220.866 151.359,217.9 140.15,217.9 136.451,236.924 151.762,236.924 153.732,236.924 
			155.486,236.924 157.021,229.021 163.477,229.021 164.053,226.054 157.6,226.054 158.607,220.866 166.197,220.866 166.775,217.9 
			155.459,217.9 		"/>
		<polygon fill="#FFFFFF" points="167.371,236.924 171.07,236.924 174.768,217.9 171.07,217.9 		"/>
		<path fill="#FFFFFF" d="M220.127,220.114c-0.984-1.475-2.451-2.214-4.402-2.214h-5.752l-3.121,16.057h-3.994h-6.951l3.119-16.057
			h-3.723l-3.121,16.057h-11.584l1.047-5.383h6.389l0.578-2.965h-6.393l0.92-4.743h7.486l0.578-2.966h-11.209l-3.699,19.023h15.309
			h10.676h3.996h1.809h3.941c1.951,0,3.705-0.735,5.264-2.207c1.561-1.473,2.564-3.371,3.016-5.696l0.621-3.202
			C221.379,223.491,221.113,221.592,220.127,220.114z M217.225,225.784l-0.629,3.229c-0.293,1.492-0.803,2.69-1.543,3.592
			c-0.736,0.903-1.623,1.353-2.66,1.353h-1.814l2.543-13.091h1.816c1.039,0,1.748,0.451,2.139,1.349
			C217.463,223.112,217.512,224.302,217.225,225.784z"/>
	</g>
	<path fill="#41AE94" d="M148.561,6.076c-41.092,0-74.527,33.436-74.527,74.526c0,41.095,33.436,74.526,74.527,74.526
		c41.096,0,74.525-33.432,74.525-74.526C223.086,39.512,189.656,6.076,148.561,6.076z M77.758,80.603
		c0-0.913,0.041-1.816,0.072-2.718c0.123-2.429,0.424-4.805,0.863-7.134c-0.045,3.282,0.193,6.555,0.729,9.772
		c-0.555,3.246-0.797,6.51-0.756,9.756c-0.424-2.273-0.717-4.592-0.836-6.957C77.799,82.419,77.758,81.517,77.758,80.603z
		 M185.494,140.979c-0.152,0.094-0.303,0.188-0.455,0.279c-0.898,0.544-1.809,1.071-2.736,1.573
		c-2.375,1.262-4.84,2.336-7.365,3.218c2.9-1.614,5.641-3.477,8.184-5.572c3.117-1.174,6.117-2.632,8.965-4.343
		c-1.646,1.421-3.396,2.751-5.244,3.981C186.393,140.404,185.953,140.7,185.494,140.979z M145.873,151.336
		c-2.4-0.119-4.768-0.408-7.098-0.842c0.262,0.004,0.525,0.015,0.793,0.015c3.039,0,6.045-0.259,8.992-0.755
		c2.949,0.496,5.953,0.755,8.996,0.755c0.242,0,0.477-0.011,0.715-0.015c-3.148,0.585-6.393,0.91-9.707,0.91h-0.004
		c-0.158,0-0.307-0.011-0.467-0.015C147.354,151.386,146.615,151.364,145.873,151.336z M112.023,141.226
		c-0.102-0.065-0.209-0.128-0.307-0.189c-0.502-0.308-0.99-0.632-1.477-0.95c-1.854-1.231-3.615-2.563-5.271-3.994
		c2.844,1.719,5.846,3.182,8.967,4.359c2.537,2.105,5.25,3.947,8.084,5.539c-2.465-0.87-4.871-1.921-7.195-3.152
		C113.877,142.321,112.945,141.781,112.023,141.226z M80.359,84.962c1.098,4.355,2.727,8.571,4.863,12.544
		c0.119,4.23,0.723,8.478,1.844,12.667c0.057,0.206,0.121,0.404,0.18,0.606c-2.605-3.737-4.746-7.82-6.326-12.174
		C80.135,94.12,79.951,89.541,80.359,84.962z M80.959,62.484c1.584-4.333,3.73-8.396,6.334-12.12
		c-1.209,4.292-1.902,8.729-2.037,13.209c-2.012,3.722-3.611,7.701-4.734,11.893c-0.055,0.202-0.096,0.409-0.148,0.612
		C79.99,71.576,80.168,67.006,80.959,62.484z M111.662,20.206c0.129-0.079,0.264-0.159,0.395-0.24
		c0.912-0.553,1.838-1.087,2.777-1.6c0.291-0.155,0.586-0.303,0.883-0.453c0.172-0.092,0.342-0.177,0.518-0.266
		c1.936-0.953,3.926-1.78,5.951-2.492c-2.898,1.616-5.641,3.478-8.184,5.576c-3.119,1.173-6.117,2.631-8.967,4.344
		c1.643-1.414,3.381-2.743,5.227-3.969C110.723,20.807,111.188,20.497,111.662,20.206z M148.561,9.803c0.008,0,0.018,0,0.025,0
		c0.891,0,1.781,0.036,2.668,0.068c2.404,0.121,4.773,0.41,7.102,0.845c-0.266-0.007-0.533-0.015-0.799-0.015
		c-3.041,0-6.047,0.257-8.992,0.751c-2.947-0.497-5.957-0.751-8.996-0.751c-0.242,0-0.48,0.007-0.723,0.011
		c3.016-0.562,6.111-0.873,9.281-0.896C148.271,9.814,148.416,9.803,148.561,9.803z M185.049,19.955
		c0.145,0.088,0.289,0.177,0.43,0.266c0.469,0.284,0.914,0.583,1.369,0.875c1.844,1.232,3.592,2.561,5.238,3.978
		c-2.828-1.699-5.805-3.151-8.896-4.317c-2.543-2.105-5.254-3.947-8.09-5.54c2.469,0.87,4.875,1.921,7.201,3.156
		C183.23,18.878,184.143,19.409,185.049,19.955z M216.762,76.244c-1.105-4.376-2.742-8.613-4.895-12.603
		c-0.127-4.505-0.822-8.961-2.035-13.275c2.625,3.754,4.783,7.86,6.371,12.237C216.984,67.089,217.172,71.668,216.762,76.244z
		 M211.865,94.322c-0.143-4.596-0.877-9.203-2.219-13.72c1.336-4.496,2.07-9.082,2.215-13.658c2.051,4.362,3.514,8.981,4.326,13.724
		c-0.275,1.567-0.611,3.131-1.027,4.688C214.324,88.472,213.209,91.466,211.865,94.322z M182.359,139.167
		c-4.479,1.659-9.199,2.721-14.049,3.116c3.939-2.442,7.568-5.39,10.785-8.777c4.564-1.091,8.904-2.748,12.945-4.913
		C189.301,132.54,186.045,136.099,182.359,139.167z M111.146,135.904c-2.283-2.282-4.32-4.742-6.117-7.335
		c4.053,2.174,8.414,3.843,12.996,4.937c3.219,3.388,6.846,6.335,10.783,8.779c-4.867-0.4-9.611-1.47-14.107-3.142
		C113.475,138.121,112.287,137.045,111.146,135.904z M88.301,83.154c1.102,3.122,2.486,6.191,4.201,9.164
		c0.559,0.97,1.152,1.917,1.768,2.842c-0.068,1.102-0.109,2.21-0.109,3.33c0,3.386,0.318,6.725,0.92,9.985
		c-3.324-3.435-6.139-7.254-8.383-11.359C86.6,92.403,87.145,87.716,88.301,83.154z M86.729,63.972
		c2.273-4.131,5.088-7.916,8.373-11.291c-0.613,3.256-0.945,6.607-0.945,10.038c0,1.12,0.045,2.228,0.113,3.33
		c-0.615,0.926-1.209,1.875-1.768,2.842c-1.691,2.934-3.084,5.984-4.191,9.11C87.146,73.365,86.621,68.649,86.729,63.972z
		 M114.762,22.041c4.48-1.66,9.205-2.721,14.047-3.117c-3.938,2.443-7.564,5.39-10.783,8.777c-4.561,1.087-8.904,2.748-12.943,4.912
		C107.824,28.666,111.082,25.108,114.762,22.041z M185.977,25.303c2.283,2.282,4.314,4.742,6.117,7.338
		c-4.055-2.178-8.416-3.846-13-4.94c-3.215-3.388-6.844-6.334-10.783-8.777c4.869,0.399,9.611,1.468,14.113,3.14
		C183.648,23.086,184.834,24.162,185.977,25.303z M201.475,98.488c0,4.094-0.484,8.073-1.367,11.903
		c-2.895,2.685-6.098,5.072-9.602,7.093c-0.383,0.22-0.764,0.428-1.146,0.637c1.715-3.856,2.934-7.836,3.693-11.853
		c3.109-2.681,5.926-5.724,8.389-9.086C201.453,97.618,201.475,98.05,201.475,98.488z M164.002,142.468
		c-4.346,0-8.666-0.549-12.863-1.61c3.154-1.111,6.215-2.51,9.135-4.195c0.973-0.562,1.912-1.157,2.838-1.768
		c1.102,0.067,2.213,0.114,3.336,0.114c3.412,0,6.746-0.333,9.986-0.936c-3.41,3.295-7.234,6.108-11.369,8.376
		C164.711,142.457,164.355,142.468,164.002,142.468z M132.059,142.449c-4.135-2.268-7.959-5.081-11.365-8.376
		c3.236,0.603,6.574,0.936,9.982,0.936c1.123,0,2.229-0.047,3.336-0.114c0.926,0.612,1.869,1.206,2.84,1.766
		c2.914,1.688,5.98,3.086,9.133,4.197c-4.197,1.062-8.516,1.612-12.861,1.612C132.764,142.47,132.41,142.459,132.059,142.449z
		 M95.682,97.187c2.449,3.348,5.256,6.381,8.354,9.054c0.773,4.063,2.02,8.046,3.729,11.885c-0.389-0.209-0.771-0.419-1.146-0.639
		c-3.547-2.046-6.754-4.457-9.627-7.137c-0.879-3.846-1.344-7.818-1.344-11.859C95.646,98.051,95.672,97.619,95.682,97.187z
		 M95.646,62.719c0-4.094,0.484-8.075,1.365-11.903c2.898-2.683,6.1-5.072,9.605-7.093c0.375-0.22,0.758-0.43,1.146-0.637
		c-1.715,3.858-2.93,7.835-3.695,11.853c-3.107,2.68-5.93,5.724-8.391,9.088C95.668,63.588,95.646,63.156,95.646,62.719z
		 M133.119,18.739c4.348,0,8.668,0.551,12.865,1.611c-3.156,1.111-6.219,2.512-9.137,4.198c-0.971,0.56-1.91,1.154-2.836,1.764
		c-1.107-0.067-2.213-0.114-3.336-0.114c-3.408,0-6.746,0.333-9.982,0.936c3.406-3.295,7.23-6.107,11.365-8.376
		C132.41,18.75,132.764,18.739,133.119,18.739z M165.064,18.756c4.131,2.27,7.959,5.083,11.365,8.378
		c-3.24-0.603-6.576-0.936-9.982-0.936c-1.125,0-2.234,0.047-3.342,0.114c-0.924-0.61-1.861-1.204-2.834-1.764
		c-2.918-1.687-5.98-3.087-9.139-4.198c4.201-1.06,8.521-1.611,12.863-1.611C164.355,18.739,164.711,18.75,165.064,18.756z
		 M201.441,64.021c-2.463-3.36-5.279-6.405-8.393-9.084c-0.758-4.016-1.979-7.994-3.693-11.854c0.385,0.211,0.768,0.419,1.15,0.638
		c3.547,2.047,6.75,4.456,9.625,7.138c0.877,3.846,1.344,7.819,1.344,11.862C201.475,63.156,201.453,63.586,201.441,64.021z
		 M191.691,105.467c-2.756,2.33-5.738,4.372-8.906,6.097c1.34-3.028,2.391-6.167,3.162-9.375c2.396-2.275,4.596-4.764,6.549-7.439
		C192.594,98.314,192.33,101.904,191.691,105.467z M104.6,94.714c1.955,2.679,4.146,5.167,6.547,7.441
		c0.115,0.489,0.223,0.982,0.354,1.472c0.732,2.729,1.664,5.368,2.781,7.907c-3.156-1.723-6.133-3.767-8.885-6.092
		C104.76,101.906,104.498,98.316,104.6,94.714z M105.432,55.742c2.754-2.333,5.74-4.373,8.904-6.096
		c-1.338,3.024-2.389,6.165-3.158,9.375c-2.402,2.273-4.596,4.76-6.555,7.436C104.529,62.893,104.793,59.299,105.432,55.742z
		 M192.496,66.457c-1.945-2.662-4.129-5.139-6.52-7.405c-0.115-0.489-0.223-0.982-0.354-1.472c-0.732-2.729-1.668-5.367-2.781-7.907
		c3.141,1.717,6.105,3.75,8.85,6.069C192.326,59.299,192.59,62.891,192.496,66.457z M187.43,87.716
		c-0.076-2.346-0.307-4.697-0.689-7.035c0.396-2.35,0.646-4.722,0.725-7.109c1.072,2.28,1.977,4.63,2.709,7.031
		C189.434,83.033,188.516,85.409,187.43,87.716z M184.6,101.412c-1.857,1.731-3.838,3.329-5.936,4.784
		c1.123-2.093,2.109-4.265,2.951-6.507c1.521-1.854,2.91-3.792,4.16-5.812C185.566,96.417,185.172,98.935,184.6,101.412z
		 M112.49,101.379c-0.578-2.504-0.969-5.027-1.18-7.553c1.258,2.036,2.662,3.992,4.195,5.859c0.844,2.244,1.83,4.417,2.947,6.511
		C116.35,104.734,114.359,103.125,112.49,101.379z M111.314,84.977c0.438,1.74,0.965,3.467,1.586,5.182
		c0.309,1.756,0.709,3.481,1.184,5.179c-1.066-1.54-2.057-3.129-2.953-4.765C111.092,88.699,111.152,86.834,111.314,84.977z
		 M111.16,70.52c0.904-1.64,1.889-3.225,2.959-4.752c-0.488,1.71-0.891,3.455-1.209,5.226c-0.611,1.674-1.135,3.367-1.574,5.077
		C111.182,74.22,111.121,72.369,111.16,70.52z M112.52,59.797c1.861-1.735,3.846-3.335,5.934-4.787
		c-1.105,2.071-2.084,4.224-2.92,6.442c-1.516,1.836-2.92,3.765-4.182,5.788C111.568,64.73,111.959,62.242,112.52,59.797z
		 M184.631,59.826c0.578,2.506,0.969,5.031,1.182,7.555c-1.262-2.033-2.664-3.994-4.197-5.861c-0.842-2.243-1.828-4.417-2.951-6.509
		C180.773,56.473,182.764,58.082,184.631,59.826z M185.813,76.233c-0.441-1.739-0.973-3.471-1.59-5.183
		c-0.311-1.759-0.709-3.483-1.188-5.183c1.072,1.542,2.061,3.133,2.955,4.768C186.031,72.51,185.969,74.377,185.813,76.233z
		 M157.451,118.037c-1.48,0-2.957-0.071-4.432-0.197c1.738-0.442,3.453-0.968,5.141-1.584c1.725-0.307,3.422-0.695,5.084-1.164
		c-1.523,1.056-3.098,2.033-4.725,2.927C158.162,118.025,157.811,118.037,157.451,118.037z M138.607,118.019
		c-1.627-0.892-3.201-1.869-4.73-2.927c1.666,0.469,3.361,0.857,5.088,1.166c1.689,0.614,3.402,1.14,5.139,1.582
		c-1.471,0.126-2.953,0.197-4.436,0.197C139.314,118.037,138.961,118.025,138.607,118.019z M139.668,43.17
		c1.482,0,2.965,0.071,4.436,0.199c-1.736,0.44-3.449,0.968-5.139,1.582c-1.727,0.307-3.422,0.695-5.088,1.165
		c1.529-1.058,3.104-2.035,4.727-2.927C138.957,43.182,139.311,43.17,139.668,43.17z M158.516,43.188
		c1.623,0.892,3.205,1.869,4.729,2.927c-1.668-0.468-3.361-0.858-5.084-1.165c-1.688-0.614-3.406-1.142-5.143-1.582
		c1.471-0.128,2.953-0.199,4.438-0.199C157.811,43.17,158.162,43.182,158.516,43.188z M148.561,113.395
		c-18.078,0-32.791-14.71-32.791-32.792c0-18.08,14.713-32.791,32.791-32.791c18.082,0,32.793,14.711,32.793,32.791
		C181.354,98.685,166.643,113.395,148.561,113.395z M180.186,62.345c-0.139-0.244-0.285-0.479-0.428-0.717
		c0.182,0.217,0.373,0.428,0.555,0.646c0.104,0.274,0.193,0.558,0.289,0.84C180.463,62.858,180.336,62.598,180.186,62.345z
		 M166.822,48.978c-0.242-0.141-0.486-0.267-0.727-0.404c0.24,0.088,0.488,0.166,0.729,0.255c0.223,0.186,0.447,0.37,0.666,0.558
		C167.262,49.252,167.047,49.111,166.822,48.978z M149.51,44.109c-0.318-0.003-0.631-0.025-0.949-0.025s-0.633,0.021-0.943,0.025
		c0.311-0.061,0.627-0.119,0.943-0.173C148.879,43.99,149.191,44.048,149.51,44.109z M131.027,48.573
		c-0.242,0.137-0.486,0.264-0.725,0.404c-0.227,0.13-0.441,0.271-0.666,0.405c0.221-0.186,0.439-0.372,0.66-0.554
		C130.535,48.739,130.785,48.662,131.027,48.573z M116.936,62.344c-0.146,0.251-0.275,0.509-0.416,0.762
		c0.105-0.296,0.203-0.596,0.316-0.89c0.201-0.242,0.4-0.48,0.607-0.717C117.271,61.78,117.098,62.058,116.936,62.344z
		 M116.932,98.862c0.141,0.24,0.289,0.475,0.428,0.711c-0.182-0.213-0.367-0.423-0.547-0.639c-0.104-0.278-0.195-0.557-0.297-0.837
		C116.66,98.353,116.789,98.609,116.932,98.862z M130.301,112.228c0.24,0.141,0.482,0.27,0.723,0.404
		c-0.24-0.086-0.488-0.162-0.727-0.253c-0.221-0.182-0.439-0.368-0.66-0.556C129.861,111.957,130.076,112.102,130.301,112.228z
		 M147.621,117.1c0.314,0.004,0.625,0.023,0.939,0.023c0.318,0,0.631-0.02,0.941-0.023c-0.311,0.06-0.623,0.115-0.938,0.172
		C148.246,117.215,147.936,117.159,147.621,117.1z M166.102,112.632c0.234-0.135,0.479-0.264,0.721-0.404
		c0.225-0.126,0.439-0.271,0.668-0.404c-0.219,0.188-0.439,0.374-0.666,0.556C166.586,112.47,166.34,112.546,166.102,112.632z
		 M180.189,98.862c0.145-0.249,0.27-0.504,0.41-0.753c-0.096,0.275-0.191,0.552-0.291,0.826c-0.178,0.215-0.361,0.425-0.547,0.636
		C179.906,99.335,180.049,99.103,180.189,98.862z M185.055,79.732c0.061,0.313,0.127,0.625,0.176,0.938
		c-0.055,0.324-0.115,0.647-0.178,0.973c0.008-0.347,0.025-0.689,0.025-1.04C185.078,80.311,185.061,80.021,185.055,79.732z
		 M178.559,58.116c-1.232-1.264-2.531-2.474-3.902-3.625c-1.152-1.36-2.363-2.66-3.633-3.897c1.686,0.794,3.332,1.67,4.918,2.633
		C176.898,54.803,177.766,56.439,178.559,58.116z M167.6,47.53c-1.855-1.517-3.803-2.915-5.836-4.175
		c2.566,0.213,5.098,0.603,7.57,1.175c1.746,1.871,3.361,3.862,4.822,5.97C172.049,49.37,169.859,48.378,167.6,47.53z
		 M158.914,41.705c-2.498-1.349-5.1-2.503-7.787-3.453c2.984-0.755,6.041-1.259,9.152-1.484c2.564,1.737,4.963,3.702,7.18,5.854
		C164.66,42.094,161.803,41.784,158.914,41.705z M155.621,41.711c-2.369,0.083-4.729,0.318-7.061,0.71
		c-2.334-0.392-4.688-0.626-7.063-0.71c2.283-1.076,4.643-1.997,7.063-2.745C150.984,39.714,153.338,40.635,155.621,41.711z
		 M138.207,41.705c-2.887,0.079-5.742,0.39-8.541,0.917c2.217-2.152,4.611-4.117,7.18-5.854c3.109,0.226,6.168,0.729,9.146,1.484
		C143.305,39.202,140.705,40.355,138.207,41.705z M135.357,43.355c-2.033,1.264-3.98,2.658-5.832,4.175
		c-2.258,0.849-4.449,1.84-6.559,2.968c1.463-2.105,3.072-4.097,4.816-5.968C130.262,43.958,132.791,43.568,135.357,43.355z
		 M126.098,50.594c-1.258,1.223-2.457,2.508-3.598,3.855c-1.371,1.145-2.674,2.351-3.916,3.618c0.785-1.663,1.652-3.279,2.6-4.843
		C122.768,52.264,124.41,51.388,126.098,50.594z M112.066,79.575c-0.004,0.343-0.025,0.685-0.025,1.027
		c0,0.293,0.02,0.58,0.023,0.87c-0.057-0.311-0.121-0.621-0.174-0.932C111.943,80.218,112.008,79.896,112.066,79.575z
		 M118.561,103.093c1.232,1.262,2.533,2.472,3.902,3.622c1.15,1.363,2.363,2.662,3.635,3.896c-1.688-0.796-3.33-1.666-4.914-2.631
		C120.227,106.406,119.355,104.771,118.561,103.093z M129.525,113.678c1.852,1.517,3.799,2.914,5.832,4.175
		c-2.566-0.21-5.096-0.604-7.574-1.179c-1.744-1.865-3.354-3.861-4.816-5.965C125.072,111.838,127.268,112.831,129.525,113.678z
		 M138.209,119.503c2.5,1.353,5.1,2.505,7.787,3.45c-2.982,0.757-6.041,1.261-9.15,1.488c-2.564-1.739-4.963-3.703-7.18-5.854
		C132.465,119.114,135.32,119.427,138.209,119.503z M141.502,119.494c2.371-0.08,4.729-0.318,7.063-0.708
		c2.332,0.39,4.691,0.626,7.063,0.708c-2.285,1.078-4.643,1.999-7.063,2.748C146.141,121.494,143.781,120.573,141.502,119.494z
		 M158.914,119.501c2.889-0.077,5.746-0.39,8.549-0.913c-2.221,2.146-4.619,4.113-7.184,5.852c-3.111-0.226-6.168-0.729-9.152-1.486
		C153.814,122.008,156.416,120.852,158.914,119.501z M161.77,117.851c2.027-1.261,3.977-2.656,5.83-4.173
		c2.26-0.847,4.449-1.84,6.557-2.969c-1.461,2.104-3.076,4.098-4.816,5.965C166.861,117.248,164.332,117.642,161.77,117.851z
		 M171.027,110.611c1.268-1.234,2.484-2.533,3.633-3.896c1.369-1.15,2.666-2.36,3.898-3.62c-0.793,1.678-1.664,3.312-2.621,4.886
		C174.355,108.945,172.713,109.815,171.027,110.611z M183.033,95.337c0.475-1.674,0.867-3.38,1.178-5.117
		c0.613-1.676,1.135-3.367,1.58-5.081c0.146,1.831,0.213,3.662,0.168,5.485C185.074,92.244,184.094,93.813,183.033,95.337z
		 M187.465,70.247c-0.078-2.846-0.385-5.701-0.92-8.541c2.141,2.208,4.102,4.599,5.836,7.156c-0.227,3.097-0.732,6.161-1.492,9.162
		C189.953,75.355,188.813,72.752,187.465,70.247z M183.963,57.233c-2.172-1.867-4.49-3.575-6.943-5.088
		c-1.508-2.449-3.215-4.764-5.082-6.938c3.016,0.859,5.939,1.982,8.742,3.348C182.016,51.321,183.111,54.222,183.963,57.233z
		 M170.109,43.182c-2.275-2.391-4.76-4.583-7.428-6.535c0.471-0.013,0.945-0.023,1.42-0.023c3.158,0,6.301,0.294,9.395,0.858
		c2.326,2.747,4.357,5.735,6.078,8.918C176.533,45.045,173.367,43.963,170.109,43.182z M164.102,35.133
		c-1.15,0-2.295,0.04-3.432,0.112c-3.092-2.055-6.408-3.791-9.902-5.184c3.811-1.183,7.809-1.933,11.932-2.223
		c3.396,2.29,6.488,4.926,9.223,7.876C169.334,35.332,166.725,35.133,164.102,35.133z M158.242,35.458
		c-3.301,0.357-6.541,1.017-9.682,1.954c-3.143-0.937-6.379-1.596-9.68-1.954c3.041-1.863,6.277-3.427,9.68-4.651
		C151.963,32.031,155.201,33.595,158.242,35.458z M136.451,35.246c-1.137-0.072-2.283-0.112-3.43-0.112
		c-2.615,0-5.219,0.199-7.799,0.576c2.699-2.923,5.783-5.563,9.201-7.871c4.121,0.291,8.119,1.04,11.93,2.223
		C142.861,31.455,139.547,33.19,136.451,35.246z M133.021,36.623c0.475,0,0.945,0.011,1.422,0.023
		c-2.672,1.952-5.156,4.144-7.43,6.535c-3.246,0.78-6.396,1.854-9.426,3.2c1.701-3.146,3.734-6.132,6.08-8.908
		C126.748,36.914,129.879,36.623,133.021,36.623z M125.184,45.208c-1.863,2.174-3.568,4.489-5.082,6.938
		c-2.441,1.506-4.748,3.2-6.912,5.06c0.842-2.972,1.936-5.876,3.287-8.666C119.268,47.179,122.182,46.063,125.184,45.208z
		 M110.611,61.67c-0.521,2.783-0.838,5.607-0.922,8.449c-1.357,2.506-2.512,5.135-3.473,7.861c-0.75-2.988-1.252-6.038-1.475-9.118
		C106.486,66.291,108.455,63.891,110.611,61.67z M109.689,73.431c0.074,2.369,0.305,4.74,0.695,7.102
		c-0.398,2.35-0.648,4.719-0.729,7.102c-1.074-2.291-1.984-4.654-2.721-7.071C107.686,78.102,108.611,75.72,109.689,73.431z
		 M109.656,90.96c0.078,2.85,0.391,5.701,0.924,8.543c-2.154-2.221-4.121-4.621-5.861-7.19c0.227-3.067,0.727-6.134,1.498-9.173
		C107.158,85.825,108.301,88.443,109.656,90.96z M113.158,103.972c2.174,1.871,4.488,3.577,6.941,5.089
		c1.516,2.452,3.217,4.767,5.084,6.941c-3.016-0.861-5.941-1.984-8.744-3.35C115.107,109.888,114.006,106.984,113.158,103.972z
		 M127.014,118.025c2.273,2.395,4.758,4.585,7.43,6.535c-0.477,0.011-0.947,0.023-1.422,0.023c-3.158,0-6.303-0.294-9.398-0.857
		c-2.326-2.748-4.355-5.735-6.078-8.917C120.586,116.16,123.754,117.244,127.014,118.025z M133.021,126.074
		c1.146,0,2.293-0.04,3.434-0.112c3.094,2.055,6.41,3.788,9.898,5.185c-3.813,1.183-7.809,1.934-11.932,2.223
		c-3.398-2.29-6.49-4.926-9.225-7.877C127.783,125.875,130.395,126.074,133.021,126.074z M138.881,125.752
		c3.301-0.36,6.545-1.02,9.684-1.957c3.139,0.938,6.377,1.597,9.678,1.954c-3.037,1.863-6.279,3.424-9.682,4.649
		C145.158,129.173,141.922,127.612,138.881,125.752z M160.67,125.962c1.137,0.072,2.281,0.112,3.432,0.112
		c2.613,0,5.221-0.199,7.799-0.576c-2.701,2.923-5.781,5.563-9.201,7.871c-4.123-0.291-8.121-1.04-11.932-2.223
		C154.262,129.75,157.578,128.013,160.67,125.962z M164.102,124.584c-0.475,0-0.949-0.013-1.42-0.023
		c2.672-1.952,5.156-4.143,7.428-6.536c3.244-0.778,6.398-1.853,9.426-3.2c-1.707,3.149-3.738,6.136-6.078,8.909
		C170.375,124.292,167.246,124.584,164.102,124.584z M171.939,116c1.867-2.173,3.572-4.487,5.08-6.939
		c2.441-1.502,4.748-3.199,6.914-5.06c-0.846,2.972-1.939,5.876-3.289,8.665C177.855,114.028,174.939,115.143,171.939,116z
		 M186.508,99.537c0.529-2.806,0.842-5.651,0.93-8.518c1.361-2.522,2.51-5.145,3.451-7.838c0.76,3.003,1.266,6.066,1.492,9.164
		C190.635,94.915,188.668,97.316,186.508,99.537z M191.727,80.603c0.943-3.169,1.6-6.421,1.957-9.715
		c1.873,3.047,3.439,6.299,4.67,9.715c-1.23,3.413-2.797,6.669-4.67,9.717C193.326,87.023,192.67,83.773,191.727,80.603z
		 M193.895,68.458c0.232-3.709,0.084-7.456-0.455-11.179c2.947,2.722,5.602,5.791,7.887,9.168c-0.285,4.128-1.037,8.133-2.225,11.95
		C197.703,74.89,195.957,71.56,193.895,68.458z M191.23,53.441c-2.93-2.312-6.086-4.323-9.424-5.989
		c-1.67-3.384-3.693-6.561-6.02-9.503c3.928,0.896,7.752,2.241,11.391,4.01C188.996,45.688,190.352,49.538,191.23,53.441z
		 M174.273,36.108c-2.691-3.115-5.748-5.928-9.125-8.386c0.432-0.011,0.861-0.032,1.299-0.032c4.08,0,8.053,0.48,11.873,1.359
		c2.703,2.893,5.102,6.107,7.121,9.61c0.219,0.375,0.412,0.758,0.619,1.138C182.275,38.125,178.322,36.887,174.273,36.108z
		 M159.527,25.838c0.377,0.216,0.736,0.451,1.105,0.675c-4.182,0.448-8.225,1.376-12.072,2.721
		c-3.85-1.345-7.891-2.273-12.074-2.721c0.369-0.224,0.73-0.459,1.105-0.675c3.479-2.01,7.16-3.606,10.965-4.774
		C152.367,22.232,156.051,23.828,159.527,25.838z M130.676,27.69c0.434,0,0.859,0.021,1.297,0.032
		c-3.395,2.476-6.426,5.294-9.082,8.379c-4.066,0.776-8.031,2.017-11.832,3.7c0.205-0.379,0.404-0.766,0.621-1.145
		c2.02-3.5,4.418-6.715,7.123-9.606C122.621,28.171,126.594,27.69,130.676,27.69z M121.377,37.941
		c-2.336,2.961-4.348,6.139-6.002,9.48c-3.359,1.672-6.539,3.694-9.484,6.02c0.881-3.904,2.232-7.754,4.049-11.48
		C113.596,40.184,117.438,38.837,121.377,37.941z M103.682,57.28c-0.539,3.725-0.688,7.468-0.451,11.177
		c-2.066,3.102-3.813,6.432-5.211,9.939c-1.189-3.815-1.936-7.817-2.225-11.947C98.082,63.073,100.732,60.003,103.682,57.28z
		 M103.436,70.888c0.357,3.279,1.012,6.518,1.947,9.672c-0.145,0.483-0.297,0.964-0.428,1.451c-0.734,2.738-1.244,5.497-1.549,8.262
		c-1.855-3.034-3.416-6.273-4.641-9.668C99.998,77.19,101.566,73.937,103.436,70.888z M103.189,92.693
		c-0.24,3.756-0.078,7.505,0.455,11.203c-2.936-2.713-5.574-5.773-7.85-9.137c0.289-4.128,1.035-8.132,2.225-11.947
		C99.408,86.296,101.143,89.605,103.189,92.693z M105.869,107.751c2.939,2.319,6.104,4.332,9.445,6.005
		c1.67,3.384,3.693,6.562,6.018,9.501c-3.926-0.894-7.75-2.239-11.393-4.011C108.131,115.547,106.77,111.693,105.869,107.751z
		 M122.848,125.099c2.689,3.115,5.744,5.929,9.125,8.386c-0.438,0.011-0.863,0.032-1.297,0.032c-4.082,0-8.055-0.479-11.873-1.359
		c-2.705-2.891-5.1-6.105-7.123-9.608c-0.217-0.375-0.416-0.76-0.623-1.141C114.84,123.084,118.801,124.32,122.848,125.099z
		 M137.594,135.369c-0.377-0.216-0.738-0.451-1.109-0.675c4.186-0.448,8.227-1.376,12.076-2.722
		c3.852,1.346,7.893,2.273,12.076,2.722c-0.371,0.224-0.73,0.459-1.109,0.675c-3.475,2.012-7.158,3.606-10.967,4.774
		C144.758,138.976,141.074,137.379,137.594,135.369z M166.447,133.517c-0.438,0-0.865-0.021-1.299-0.032
		c3.396-2.476,6.426-5.294,9.086-8.379c4.063-0.776,8.033-2.019,11.834-3.699c-0.213,0.381-0.408,0.764-0.627,1.143
		c-2.02,3.502-4.416,6.716-7.119,9.608C174.5,133.037,170.531,133.517,166.447,133.517z M175.75,123.268
		c2.334-2.967,4.342-6.145,5.998-9.481c3.355-1.676,6.539-3.696,9.484-6.022c-0.877,3.904-2.236,7.754-4.053,11.482
		C183.527,121.025,179.688,122.372,175.75,123.268z M193.439,103.927c0.539-3.725,0.688-7.468,0.455-11.177
		c2.063-3.103,3.809-6.434,5.207-9.94c1.188,3.817,1.939,7.818,2.229,11.946C199.041,98.133,196.389,101.204,193.439,103.927z
		 M199.928,80.603c1.348-3.854,2.279-7.901,2.727-12.094c0.225,0.374,0.455,0.746,0.674,1.126c2.045,3.537,3.609,7.22,4.758,10.968
		c-1.148,3.751-2.713,7.433-4.76,10.968c-0.217,0.38-0.441,0.751-0.672,1.123C202.207,88.505,201.275,84.456,199.928,80.603z
		 M204.619,68.889c-0.559-0.97-1.15-1.916-1.77-2.844c0.068-1.102,0.115-2.207,0.115-3.326c0-3.389-0.322-6.727-0.924-9.986
		c3.309,3.417,6.115,7.218,8.352,11.302c0.102,4.664-0.424,9.364-1.586,13.985C207.711,74.907,206.328,71.849,204.619,68.889z
		 M191.252,42.43c-0.971-0.56-1.953-1.083-2.953-1.583c-0.494-0.988-1.006-1.966-1.566-2.933c-1.693-2.936-3.652-5.671-5.822-8.198
		c4.605,1.311,8.965,3.218,12.969,5.656c2.441,4.03,4.314,8.366,5.592,12.894C196.957,46.11,194.219,44.144,191.252,42.43z
		 M165.459,17.273c-3.926-2.122-8.111-3.761-12.467-4.874c1.51-0.134,3.033-0.208,4.564-0.208c3.098,0,6.186,0.284,9.225,0.825
		c4.264,1.562,8.311,3.68,12.061,6.309C174.525,18.099,170.033,17.398,165.459,17.273z M162.168,17.282
		c-4.619,0.155-9.191,0.91-13.611,2.227c-4.416-1.316-8.988-2.071-13.604-2.227c4.295-2.029,8.873-3.494,13.611-4.313
		C153.299,13.788,157.871,15.253,162.168,17.282z M131.658,17.273c-4.539,0.123-9,0.818-13.289,2.028
		c3.713-2.589,7.764-4.724,12.088-6.306c3-0.527,6.049-0.804,9.111-0.804c1.533,0,3.055,0.074,4.568,0.208
		C139.775,13.512,135.59,15.151,131.658,17.273z M116.209,29.716c-2.17,2.524-4.127,5.258-5.82,8.196
		c-0.561,0.968-1.076,1.95-1.568,2.936c-0.996,0.498-1.982,1.023-2.951,1.582c-2.934,1.696-5.664,3.64-8.186,5.793
		c1.305-4.576,3.197-8.902,5.615-12.886C107.285,32.916,111.627,31.022,116.209,29.716z M93.791,69.637
		c0.219-0.381,0.449-0.753,0.678-1.125c0.443,4.193,1.375,8.237,2.725,12.093c-1.348,3.855-2.281,7.903-2.725,12.093
		c-0.229-0.372-0.459-0.744-0.678-1.127c-2.045-3.543-3.617-7.233-4.766-10.989C90.189,76.808,91.771,73.138,93.791,69.637z
		 M105.869,118.777c0.969,0.558,1.955,1.085,2.953,1.58c0.492,0.991,1.01,1.974,1.566,2.939c1.693,2.936,3.652,5.67,5.82,8.194
		c-4.604-1.312-8.961-3.218-12.965-5.652c-2.443-4.034-4.316-8.367-5.594-12.896C100.164,115.099,102.898,117.063,105.869,118.777z
		 M131.66,143.936c3.93,2.122,8.115,3.764,12.477,4.876c-1.514,0.13-3.037,0.205-4.568,0.205c-3.1,0-6.188-0.283-9.221-0.826
		c-4.268-1.561-8.313-3.681-12.064-6.308C122.598,143.108,127.086,143.812,131.66,143.936z M134.953,143.929
		c4.619-0.159,9.189-0.914,13.611-2.23c4.418,1.316,8.992,2.071,13.605,2.227c-4.299,2.03-8.871,3.492-13.609,4.313
		C143.822,147.417,139.248,145.955,134.953,143.929z M165.461,143.934c4.547-0.122,9.008-0.817,13.295-2.027
		c-3.713,2.589-7.766,4.724-12.086,6.306c-3.004,0.527-6.055,0.805-9.113,0.805c-1.535,0-3.057-0.075-4.568-0.205
		C157.348,147.699,161.533,146.058,165.461,143.934z M180.914,131.489c2.168-2.524,4.125-5.257,5.818-8.192
		c0.561-0.97,1.072-1.952,1.57-2.939c0.996-0.499,1.979-1.022,2.949-1.582c2.934-1.694,5.664-3.641,8.189-5.793
		c-1.307,4.576-3.199,8.902-5.615,12.886C189.834,128.289,185.5,130.184,180.914,131.489z M202.854,95.156
		c0.615-0.924,1.207-1.87,1.766-2.84c1.709-2.96,3.092-6.019,4.188-9.132c1.168,4.641,1.693,9.363,1.586,14.049
		c-2.27,4.131-5.088,7.918-8.369,11.289c0.607-3.254,0.941-6.604,0.941-10.034C202.965,97.369,202.918,96.26,202.854,95.156z
		 M210.211,60.78c-2.412-3.878-5.332-7.479-8.727-10.699c-1.066-4.501-2.689-8.835-4.859-12.903
		c3.914,2.727,7.443,5.96,10.492,9.619C208.771,51.291,209.809,55.998,210.211,60.78z M194.963,34.295
		c-2.217-3.604-4.863-6.979-7.934-10.047c-0.148-0.148-0.305-0.289-0.457-0.435c4.158,1.963,8.051,4.451,11.57,7.416
		c2.924,3.51,5.336,7.362,7.24,11.432C202.27,39.469,198.773,36.654,194.963,34.295z M98.977,31.229
		c3.545-2.979,7.463-5.486,11.643-7.45c-3.207,3.127-6.039,6.645-8.4,10.48c-3.836,2.361-7.35,5.191-10.479,8.398
		C93.643,38.589,96.059,34.736,98.977,31.229z M100.574,37.124c-2.16,4.028-3.818,8.356-4.908,12.909
		c-3.367,3.174-6.307,6.748-8.746,10.661c0.406-4.753,1.439-9.432,3.086-13.898C93.07,43.113,96.629,39.859,100.574,37.124z
		 M81.963,75.852c0.834-3.118,1.945-6.112,3.293-8.97c0.141,4.588,0.877,9.187,2.211,13.695c-1.33,4.429-2.086,8.995-2.244,13.605
		c-2.033-4.337-3.48-8.931-4.289-13.644C81.207,78.971,81.545,77.406,81.963,75.852z M88.508,109.786
		c-0.834-3.114-1.367-6.266-1.631-9.415c2.416,3.9,5.352,7.521,8.758,10.755c1.066,4.504,2.695,8.837,4.865,12.907
		c-3.932-2.741-7.48-5.995-10.539-9.671C89.416,112.865,88.926,111.345,88.508,109.786z M102.16,126.912
		c2.219,3.604,4.861,6.979,7.932,10.047c0.148,0.151,0.307,0.288,0.457,0.433c-4.188-1.972-8.105-4.487-11.648-7.476
		c-2.883-3.471-5.305-7.308-7.223-11.434C94.809,121.702,98.324,124.541,102.16,126.912z M198.148,129.976
		c-3.547,2.981-7.465,5.488-11.646,7.452c3.211-3.127,6.039-6.645,8.402-10.479c3.834-2.364,7.35-5.193,10.479-8.402
		C203.482,122.618,201.066,126.468,198.148,129.976z M196.553,124.08c2.156-4.026,3.809-8.356,4.902-12.903
		c3.367-3.175,6.307-6.75,8.744-10.664c-0.402,4.752-1.438,9.429-3.082,13.896C204.049,118.091,200.494,121.343,196.553,124.08z
		 M211.865,97.634c2.01-3.723,3.613-7.701,4.736-11.892c0.055-0.203,0.096-0.408,0.146-0.614c0.381,4.502,0.207,9.068-0.582,13.59
		c-1.586,4.335-3.732,8.399-6.334,12.123C211.041,106.549,211.729,102.112,211.865,97.634z M217.701,80.681
		c0.551-3.245,0.795-6.506,0.758-9.753c0.584,3.142,0.898,6.371,0.898,9.675c0,3.366-0.326,6.656-0.932,9.849
		C218.475,87.17,218.236,83.9,217.701,80.681z M210.572,46.479c0.139,0.26,0.289,0.52,0.426,0.784
		c0.098,0.181,0.184,0.365,0.281,0.545c1.066,2.107,1.979,4.265,2.75,6.461c-1.619-2.915-3.49-5.672-5.602-8.23
		c-1.146-3.073-2.584-6.042-4.273-8.875c1.326,1.542,2.578,3.167,3.73,4.87C208.828,43.481,209.73,44.96,210.572,46.479z
		 M92.969,37.163c-1.693,2.833-3.125,5.802-4.275,8.873c-2.09,2.537-3.949,5.273-5.563,8.164c0.752-2.145,1.641-4.265,2.689-6.343
		c0.094-0.179,0.184-0.363,0.279-0.545c0.148-0.284,0.307-0.562,0.461-0.845c0.84-1.52,1.74-3.004,2.688-4.455
		C90.4,40.317,91.645,38.698,92.969,37.163z M86.541,114.707c-0.135-0.247-0.277-0.493-0.404-0.742
		c-0.105-0.193-0.201-0.394-0.303-0.589c-1.063-2.098-1.973-4.247-2.74-6.432c1.605,2.889,3.463,5.625,5.551,8.165
		c1.143,3.077,2.559,6.017,4.209,8.801c-1.285-1.498-2.49-3.073-3.611-4.724C88.289,117.728,87.387,116.24,86.541,114.707z
		 M204.158,124.042c1.686-2.833,3.123-5.802,4.27-8.875c2.094-2.535,3.953-5.272,5.566-8.161c-0.76,2.159-1.65,4.288-2.707,6.378
		c-0.082,0.156-0.162,0.317-0.244,0.475c-0.16,0.309-0.334,0.615-0.504,0.921c-0.83,1.502-1.719,2.963-2.65,4.394
		C206.732,120.877,205.486,122.5,204.158,124.042z"/>
</g>
</svg>
