<?xml version="1.0" encoding="utf-8"?>
<!-- Generator: Adobe Illustrator 16.0.0, SVG Export Plug-In . SVG Version: 6.00 Build 0)  -->
<!DOCTYPE svg PUBLIC "-//W3C//DTD SVG 1.1//EN" "http://www.w3.org/Graphics/SVG/1.1/DTD/svg11.dtd">
<svg version="1.1" id="레이어_1" xmlns="http://www.w3.org/2000/svg" xmlns:xlink="http://www.w3.org/1999/xlink" x="0px"
	 y="0px" width="346.398px" height="113.387px" viewBox="0 0 346.398 113.387" enable-background="new 0 0 346.398 113.387"
	 xml:space="preserve">
<g>
	<g>
		<polygon fill="#FFFFFF" points="7.093,63.922 14.695,63.922 23.642,17.916 16.034,17.916 		"/>
		<polygon fill="#FFFFFF" points="47.977,49.734 47.808,49.789 40.706,24.797 33.048,24.797 25.44,63.922 33.099,63.922 
			37.953,38.957 38.126,38.904 45.221,63.922 52.826,63.922 60.431,24.797 52.826,24.797 		"/>
		<polygon fill="#FFFFFF" points="58.854,30.896 75.419,30.896 68.997,63.922 76.632,63.922 83.054,30.896 101.475,30.896 
			102.662,24.797 60.04,24.797 		"/>
		<polygon fill="#FFFFFF" points="186.956,57.824 178.334,57.824 164.038,57.824 170.46,24.797 162.802,24.797 156.38,57.824 
			148.162,57.824 133.864,57.824 140.284,24.797 132.626,24.797 126.208,57.824 102.374,57.824 104.525,46.75 117.668,46.75 
			118.854,40.65 105.713,40.65 107.607,30.896 123.007,30.896 124.192,24.797 101.135,24.797 93.529,63.922 125.022,63.922 
			146.975,63.922 155.194,63.922 177.15,63.922 185.772,63.922 189.576,63.922 193.378,63.922 200.985,24.797 193.378,24.797 		"/>
		<path fill="#FFFFFF" d="M224.442,24.23c-4.032,0-7.51,1.236-10.437,3.709c-2.929,2.473-4.827,5.957-5.7,10.453l-2.317,11.932
			c-0.884,4.535-0.298,8.027,1.765,10.48c2.057,2.455,5.181,3.682,9.373,3.682c3.244,0,6.046-0.639,8.409-1.92
			c2.36-1.281,4.236-2.764,5.62-4.447l2.833-14.566h-12.792l-1.044,5.373h5.16l-1.365,7.016c-0.626,0.807-1.337,1.416-2.143,1.828
			c-0.807,0.41-1.97,0.617-3.493,0.617c-2.041,0-3.469-0.656-4.276-1.977c-0.813-1.318-0.948-3.35-0.415-6.092l2.331-11.998
			c0.521-2.689,1.438-4.693,2.756-6.012c1.31-1.32,2.897-1.977,4.763-1.977c1.898,0,3.211,0.506,3.938,1.52
			c0.724,1.018,0.901,2.627,0.525,4.836h7.175l0.084-0.162c0.68-3.955,0.141-6.994-1.614-9.113
			C231.821,25.295,228.776,24.23,224.442,24.23z"/>
		<polygon fill="#FFFFFF" points="294.236,49.734 294.063,49.789 286.965,24.797 279.309,24.797 272.887,57.824 249.054,57.824 
			251.208,46.75 264.349,46.75 265.532,40.65 252.394,40.65 254.288,30.896 269.685,30.896 270.87,24.797 247.815,24.797 
			240.208,63.922 271.698,63.922 276.046,63.922 279.359,63.922 284.209,38.957 284.382,38.904 291.477,63.922 299.082,63.922 
			306.688,24.797 299.084,24.797 		"/>
		<polygon fill="#FFFFFF" points="305.879,24.797 304.69,30.896 321.675,30.896 313.919,70.803 321.551,70.803 329.307,30.896 
			338.122,30.896 339.306,24.797 		"/>
	</g>
	<g>
		<path fill="#FFFFFF" d="M97.197,73.844h-6.536l-4.204,21.627h6.535c2.221,0,4.212-0.836,5.986-2.508
			c1.77-1.676,2.913-3.834,3.426-6.477l0.706-3.641c0.514-2.646,0.214-4.805-0.905-6.484
			C101.086,74.684,99.414,73.844,97.197,73.844z M98.9,82.807l-0.715,3.67c-0.328,1.697-0.912,3.059-1.747,4.084
			c-0.842,1.027-1.848,1.537-3.026,1.537h-2.065l2.894-14.883h2.064c1.177,0,1.985,0.514,2.425,1.533
			C99.174,79.77,99.229,81.121,98.9,82.807z"/>
		<path fill="#FFFFFF" d="M117.26,73.857h-7.057l-4.199,21.613h4.217l1.672-8.6h3.063c0.821,0,1.392,0.297,1.719,0.889
			c0.326,0.598,0.384,1.434,0.173,2.514l-0.282,1.469c-0.148,0.742-0.244,1.471-0.295,2.184c-0.051,0.715,0.068,1.227,0.355,1.545
			h4.367l0.061-0.311c-0.289-0.307-0.434-0.799-0.44-1.479c-0.009-0.68,0.047-1.316,0.165-1.91l0.295-1.529
			c0.253-1.307,0.222-2.395-0.103-3.268c-0.321-0.871-0.999-1.494-2.033-1.873c1.063-0.484,1.93-1.135,2.591-1.953
			c0.666-0.816,1.108-1.791,1.326-2.92c0.388-2,0.086-3.561-0.906-4.686C120.952,74.422,119.39,73.857,117.26,73.857z
			 M118.59,80.471c-0.191,0.969-0.556,1.717-1.102,2.24c-0.551,0.527-1.255,0.787-2.116,0.787h-2.822l1.215-6.268h2.84
			c0.851,0,1.445,0.293,1.779,0.875C118.712,78.691,118.78,79.477,118.59,80.471z"/>
		<polygon fill="#FFFFFF" points="125.904,95.471 130.109,95.471 134.313,73.844 130.109,73.844 		"/>
		<polygon fill="#FFFFFF" points="144.052,89.992 143.734,90.775 143.646,90.775 143.646,89.947 143.192,73.844 138.752,73.844 
			140.595,95.471 144.991,95.471 155.239,73.844 150.798,73.844 		"/>
		<polygon fill="#FFFFFF" points="173.313,92.098 160.142,92.098 161.332,85.979 168.595,85.979 169.25,82.607 161.984,82.607 
			163.035,77.215 171.548,77.215 172.201,73.844 159.458,73.844 155.252,95.471 172.658,95.471 174.899,95.471 176.893,95.471 
			178.639,86.486 185.977,86.486 186.632,83.113 179.296,83.113 180.441,77.215 189.07,77.215 189.728,73.844 176.862,73.844 		"/>
		<polygon fill="#FFFFFF" points="190.404,95.471 194.61,95.471 198.813,73.844 194.61,73.844 		"/>
		<path fill="#FFFFFF" d="M250.382,76.361c-1.119-1.678-2.786-2.518-5.005-2.518h-6.539l-3.549,18.254h-4.54h-7.903l3.546-18.254
			h-4.232l-3.548,18.254h-13.17l1.19-6.119h7.264l0.657-3.371h-7.269l1.047-5.393h8.511l0.657-3.371h-12.743l-4.206,21.627h17.404
			h12.137h4.544h2.056h4.481c2.218,0,4.212-0.836,5.983-2.508c1.774-1.676,2.916-3.834,3.429-6.477l0.706-3.641
			C251.806,80.199,251.503,78.041,250.382,76.361z M247.082,82.807l-0.715,3.67c-0.333,1.697-0.912,3.059-1.754,4.084
			c-0.837,1.027-1.845,1.537-3.024,1.537h-2.063l2.891-14.883h2.065c1.181,0,1.987,0.514,2.432,1.533
			C247.354,79.77,247.409,81.121,247.082,82.807z"/>
	</g>
</g>
</svg>
