<?xml version="1.0" encoding="utf-8"?>
<!-- Generator: Adobe Illustrator 16.0.0, SVG Export Plug-In . SVG Version: 6.00 Build 0)  -->
<!DOCTYPE svg PUBLIC "-//W3C//DTD SVG 1.1//EN" "http://www.w3.org/Graphics/SVG/1.1/DTD/svg11.dtd">
<svg version="1.1" id="레이어_1" xmlns="http://www.w3.org/2000/svg" xmlns:xlink="http://www.w3.org/1999/xlink" x="0px"
	 y="0px" width="201.628px" height="38.059px" viewBox="0 0 201.628 38.059" enable-background="new 0 0 201.628 38.059"
	 xml:space="preserve">
<g>
	<polygon fill="#FFFFFF" points="43.592,28.335 47.209,28.335 51.463,6.45 47.846,6.45 	"/>
	<polygon fill="#FFFFFF" points="63.04,21.586 62.961,21.611 59.582,9.723 55.939,9.723 52.319,28.335 55.963,28.335 58.272,16.459 
		58.354,16.434 61.73,28.335 65.348,28.335 68.966,9.723 65.348,9.723 	"/>
	<polygon fill="#FFFFFF" points="67.425,12.624 76.096,12.624 73.04,28.335 76.671,28.335 79.727,12.624 89.439,12.624 
		90.004,9.723 67.988,9.723 	"/>
	<polygon fill="#FFFFFF" points="129.156,25.434 125.054,25.434 118.253,25.434 121.307,9.723 117.663,9.723 114.608,25.434 
		110.699,25.434 103.898,25.434 106.952,9.723 103.309,9.723 100.256,25.434 88.918,25.434 89.942,20.167 96.193,20.167 
		96.757,17.265 90.506,17.265 91.407,12.624 98.732,12.624 99.297,9.723 88.328,9.723 84.71,28.335 99.691,28.335 110.136,28.335 
		114.044,28.335 124.488,28.335 128.592,28.335 130.4,28.335 132.21,28.335 135.827,9.723 132.21,9.723 	"/>
	<path fill="#FFFFFF" d="M146.986,9.454c-1.918,0-3.572,0.588-4.965,1.764c-1.393,1.177-2.295,2.834-2.711,4.974l-1.104,5.676
		c-0.421,2.156-0.14,3.818,0.839,4.985c0.979,1.168,2.467,1.751,4.461,1.751c1.541,0,2.875-0.304,3.998-0.914
		c1.125-0.608,2.017-1.313,2.675-2.115l1.348-6.929h-6.085l-0.497,2.557h2.454l-0.648,3.337c-0.297,0.383-0.636,0.673-1.02,0.869
		s-0.937,0.294-1.662,0.294c-0.972,0-1.648-0.313-2.034-0.94c-0.385-0.627-0.452-1.594-0.196-2.898l1.109-5.707
		c0.247-1.279,0.684-2.232,1.31-2.86c0.623-0.627,1.379-0.94,2.267-0.94c0.902,0,1.527,0.241,1.872,0.725
		c0.346,0.482,0.429,1.248,0.25,2.299h3.413l0.041-0.076c0.323-1.882,0.065-3.327-0.769-4.336
		C150.496,9.959,149.049,9.454,146.986,9.454z"/>
	<polygon fill="#FFFFFF" points="180.187,21.586 180.106,21.611 176.729,9.723 173.085,9.723 170.031,25.434 158.694,25.434 
		159.719,20.167 165.97,20.167 166.533,17.265 160.282,17.265 161.184,12.624 168.509,12.624 169.073,9.723 158.104,9.723 
		154.486,28.335 169.468,28.335 171.535,28.335 173.111,28.335 175.418,16.459 175.501,16.434 178.876,28.335 182.494,28.335 
		186.111,9.723 182.494,9.723 	"/>
	<polygon fill="#FFFFFF" points="184.376,9.723 183.813,12.624 193.24,12.624 189.551,31.608 193.182,31.608 196.871,12.624 
		201.063,12.624 201.628,9.723 	"/>
</g>
<path fill="#FFFFFF" d="M19.029,0C8.537,0,0,8.536,0,19.029c0,10.492,8.537,19.029,19.029,19.029
	c10.493,0,19.029-8.537,19.029-19.029C38.059,8.536,29.522,0,19.029,0z M0.952,19.029c0-0.233,0.009-0.464,0.018-0.694
	c0.031-0.62,0.107-1.227,0.221-1.821c-0.012,0.838,0.049,1.673,0.186,2.495c-0.142,0.829-0.203,1.662-0.193,2.491
	C1.074,20.919,1,20.327,0.97,19.724C0.961,19.493,0.952,19.263,0.952,19.029z M28.46,34.445c-0.038,0.023-0.077,0.048-0.116,0.071
	c-0.229,0.139-0.462,0.273-0.698,0.401c-0.606,0.322-1.236,0.597-1.881,0.821c0.74-0.412,1.44-0.888,2.089-1.423
	c0.796-0.299,1.563-0.672,2.29-1.108c-0.421,0.362-0.867,0.702-1.34,1.017C28.689,34.299,28.577,34.374,28.46,34.445z M18.344,37.09
	c-0.613-0.031-1.218-0.104-1.813-0.216c0.066,0.002,0.134,0.004,0.202,0.004c0.776,0,1.544-0.065,2.296-0.192
	c0.753,0.127,1.521,0.192,2.297,0.192c0.062,0,0.122-0.002,0.183-0.003c-0.804,0.149-1.632,0.231-2.479,0.231h-0.001
	c-0.04,0-0.078-0.002-0.119-0.003C18.721,37.103,18.533,37.097,18.344,37.09z M9.7,34.508c-0.025-0.017-0.053-0.032-0.078-0.049
	c-0.128-0.078-0.253-0.161-0.378-0.242c-0.473-0.314-0.922-0.654-1.346-1.02c0.727,0.438,1.493,0.813,2.29,1.113
	c0.648,0.537,1.34,1.008,2.064,1.414c-0.63-0.223-1.244-0.49-1.837-0.805C10.173,34.788,9.936,34.65,9.7,34.508z M1.615,20.142
	c0.281,1.112,0.696,2.188,1.241,3.203c0.031,1.08,0.186,2.164,0.472,3.234c0.014,0.053,0.031,0.103,0.046,0.155
	c-0.666-0.954-1.212-1.997-1.615-3.108C1.559,22.48,1.511,21.311,1.615,20.142z M1.769,14.402c0.404-1.106,0.952-2.145,1.617-3.095
	c-0.31,1.097-0.485,2.229-0.52,3.373c-0.515,0.95-0.923,1.967-1.209,3.036c-0.015,0.052-0.025,0.104-0.038,0.156
	C1.521,16.724,1.566,15.558,1.769,14.402z M9.607,3.607c0.033-0.021,0.067-0.041,0.102-0.062c0.232-0.141,0.469-0.277,0.709-0.408
	c0.074-0.04,0.149-0.078,0.226-0.116c0.044-0.022,0.087-0.045,0.132-0.067c0.494-0.243,1.003-0.455,1.52-0.637
	c-0.74,0.413-1.44,0.889-2.09,1.424c-0.796,0.3-1.562,0.672-2.289,1.109c0.419-0.361,0.863-0.7,1.334-1.014
	C9.368,3.761,9.486,3.682,9.607,3.607z M19.029,0.951c0.002,0,0.005,0,0.007,0c0.228,0,0.455,0.009,0.681,0.018
	c0.614,0.03,1.22,0.104,1.814,0.215c-0.068-0.001-0.137-0.003-0.205-0.003c-0.776,0-1.544,0.065-2.296,0.192
	c-0.753-0.128-1.521-0.192-2.297-0.192c-0.062,0-0.123,0.002-0.185,0.003c0.77-0.144,1.561-0.223,2.37-0.229
	C18.956,0.954,18.993,0.951,19.029,0.951z M28.347,3.543c0.037,0.022,0.073,0.045,0.109,0.068c0.119,0.072,0.233,0.148,0.35,0.224
	c0.471,0.313,0.917,0.653,1.338,1.016c-0.723-0.435-1.482-0.805-2.272-1.103c-0.648-0.538-1.341-1.009-2.065-1.415
	c0.631,0.223,1.245,0.491,1.839,0.806C27.882,3.269,28.115,3.403,28.347,3.543z M36.444,17.916c-0.282-1.117-0.701-2.199-1.25-3.218
	c-0.033-1.15-0.21-2.289-0.521-3.39c0.67,0.958,1.222,2.007,1.627,3.124C36.501,15.578,36.549,16.747,36.444,17.916z M35.193,22.532
	c-0.036-1.174-0.224-2.351-0.566-3.504c0.341-1.147,0.528-2.318,0.565-3.487c0.523,1.114,0.897,2.293,1.104,3.504
	c-0.07,0.4-0.155,0.8-0.262,1.197C35.821,21.038,35.537,21.802,35.193,22.532z M27.66,33.982c-1.145,0.424-2.35,0.694-3.587,0.796
	c1.005-0.624,1.932-1.377,2.753-2.241c1.165-0.279,2.274-0.702,3.306-1.255C29.433,32.29,28.601,33.199,27.66,33.982z M9.477,33.149
	c-0.583-0.583-1.103-1.211-1.563-1.873c1.035,0.556,2.148,0.981,3.319,1.261c0.821,0.864,1.747,1.617,2.753,2.241
	c-1.243-0.102-2.454-0.375-3.603-0.802C10.071,33.715,9.768,33.44,9.477,33.149z M3.644,19.68c0.28,0.798,0.635,1.582,1.072,2.341
	c0.143,0.247,0.294,0.489,0.451,0.726c-0.017,0.281-0.028,0.564-0.028,0.85c0,0.865,0.081,1.718,0.235,2.55
	c-0.849-0.877-1.567-1.852-2.141-2.9C3.208,22.042,3.348,20.845,3.644,19.68z M3.242,14.783c0.58-1.056,1.299-2.022,2.137-2.884
	c-0.156,0.831-0.241,1.687-0.241,2.563c0,0.285,0.012,0.568,0.029,0.85c-0.157,0.236-0.309,0.479-0.451,0.726
	c-0.433,0.749-0.787,1.528-1.07,2.326C3.349,17.181,3.214,15.977,3.242,14.783z M10.399,4.076c1.144-0.424,2.351-0.695,3.587-0.796
	c-1.006,0.623-1.932,1.376-2.753,2.24c-1.165,0.278-2.274,0.702-3.306,1.255C8.628,5.768,9.459,4.859,10.399,4.076z M28.583,4.909
	c0.583,0.582,1.103,1.21,1.563,1.873c-1.035-0.556-2.149-0.981-3.319-1.262c-0.821-0.864-1.748-1.617-2.753-2.24
	c1.242,0.102,2.453,0.374,3.603,0.802C27.988,4.343,28.292,4.617,28.583,4.909z M32.54,23.596c0,1.045-0.123,2.062-0.349,3.039
	c-0.739,0.686-1.558,1.295-2.452,1.812c-0.097,0.056-0.194,0.109-0.292,0.162c0.438-0.984,0.748-2.001,0.942-3.026
	c0.794-0.685,1.514-1.461,2.143-2.32C32.534,23.373,32.54,23.483,32.54,23.596z M22.973,34.825c-1.109,0-2.213-0.14-3.285-0.411
	c0.806-0.284,1.587-0.641,2.333-1.071c0.248-0.143,0.488-0.295,0.725-0.451c0.281,0.017,0.564,0.028,0.852,0.028
	c0.871,0,1.723-0.084,2.55-0.238c-0.871,0.842-1.848,1.56-2.903,2.139C23.153,34.822,23.063,34.825,22.973,34.825z M14.816,34.82
	c-1.056-0.579-2.032-1.297-2.902-2.139c0.826,0.154,1.678,0.238,2.549,0.238c0.286,0,0.569-0.012,0.852-0.028
	c0.237,0.156,0.478,0.309,0.726,0.45c0.744,0.432,1.526,0.788,2.332,1.072c-1.072,0.271-2.175,0.411-3.284,0.411
	C14.996,34.825,14.905,34.822,14.816,34.82z M5.527,23.263c0.626,0.855,1.343,1.63,2.133,2.312c0.198,1.038,0.516,2.056,0.952,3.035
	c-0.099-0.054-0.196-0.106-0.293-0.163c-0.905-0.522-1.724-1.138-2.458-1.822c-0.224-0.981-0.343-1.996-0.343-3.028
	C5.519,23.484,5.524,23.374,5.527,23.263z M5.519,14.463c0-1.046,0.123-2.063,0.349-3.04c0.74-0.685,1.558-1.295,2.452-1.812
	c0.097-0.056,0.194-0.108,0.293-0.162c-0.438,0.985-0.748,2.001-0.943,3.026c-0.794,0.685-1.515,1.462-2.142,2.32
	C5.524,14.685,5.519,14.574,5.519,14.463z M15.087,3.232c1.109,0,2.213,0.141,3.285,0.412c-0.806,0.283-1.588,0.641-2.333,1.071
	c-0.248,0.143-0.487,0.295-0.725,0.451c-0.282-0.018-0.565-0.029-0.852-0.029c-0.871,0-1.723,0.085-2.549,0.238
	c0.87-0.841,1.847-1.56,2.902-2.139C14.905,3.235,14.996,3.232,15.087,3.232z M23.243,3.237c1.056,0.579,2.032,1.298,2.902,2.139
	c-0.827-0.153-1.679-0.238-2.549-0.238c-0.287,0-0.57,0.012-0.854,0.029c-0.236-0.156-0.476-0.309-0.724-0.451
	c-0.745-0.431-1.527-0.788-2.333-1.071c1.072-0.271,2.176-0.412,3.284-0.412C23.063,3.232,23.153,3.235,23.243,3.237z
	 M32.532,14.795c-0.629-0.858-1.349-1.635-2.144-2.319c-0.193-1.026-0.505-2.041-0.942-3.027c0.098,0.054,0.196,0.107,0.293,0.163
	c0.906,0.523,1.725,1.138,2.458,1.822c0.224,0.982,0.343,1.996,0.343,3.029C32.54,14.574,32.534,14.684,32.532,14.795z
	 M30.042,25.378c-0.703,0.595-1.465,1.116-2.273,1.556c0.342-0.772,0.61-1.574,0.807-2.394c0.612-0.581,1.174-1.216,1.673-1.899
	C30.272,23.552,30.205,24.468,30.042,25.378z M7.805,22.632c0.499,0.684,1.059,1.319,1.672,1.9c0.029,0.125,0.057,0.251,0.09,0.376
	c0.188,0.696,0.426,1.37,0.711,2.019c-0.807-0.44-1.566-0.962-2.27-1.556C7.846,24.469,7.779,23.552,7.805,22.632z M8.018,12.681
	c0.703-0.595,1.465-1.116,2.272-1.557c-0.341,0.772-0.609,1.574-0.806,2.394c-0.613,0.581-1.174,1.216-1.673,1.899
	C7.787,14.507,7.854,13.59,8.018,12.681z M30.248,15.417c-0.497-0.68-1.055-1.313-1.665-1.891c-0.029-0.125-0.057-0.251-0.09-0.376
	c-0.188-0.696-0.426-1.371-0.711-2.019c0.803,0.438,1.56,0.957,2.26,1.549C30.205,13.59,30.272,14.507,30.248,15.417z
	 M28.954,20.845c-0.02-0.599-0.078-1.199-0.176-1.796c0.102-0.601,0.165-1.206,0.186-1.815c0.272,0.582,0.504,1.183,0.691,1.796
	C29.466,19.649,29.231,20.256,28.954,20.845z M28.231,24.342c-0.474,0.442-0.979,0.851-1.515,1.222
	c0.286-0.534,0.537-1.089,0.753-1.661c0.389-0.473,0.743-0.969,1.063-1.483C28.479,23.067,28.378,23.71,28.231,24.342z
	 M9.819,24.334c-0.147-0.64-0.247-1.284-0.301-1.929c0.321,0.52,0.679,1.02,1.07,1.496c0.216,0.573,0.468,1.128,0.753,1.662
	C10.805,25.19,10.297,24.779,9.819,24.334z M9.519,20.146c0.112,0.444,0.247,0.886,0.405,1.323c0.079,0.448,0.182,0.889,0.303,1.322
	c-0.272-0.394-0.525-0.799-0.754-1.217C9.462,21.096,9.478,20.62,9.519,20.146z M9.479,16.454c0.231-0.418,0.482-0.823,0.755-1.214
	c-0.123,0.437-0.227,0.883-0.308,1.335c-0.156,0.428-0.29,0.859-0.402,1.297C9.485,17.399,9.47,16.926,9.479,16.454z M9.827,13.716
	c0.475-0.442,0.981-0.851,1.515-1.222c-0.282,0.529-0.532,1.078-0.745,1.646c-0.388,0.469-0.746,0.961-1.068,1.478
	C9.584,14.976,9.684,14.341,9.827,13.716z M28.239,13.724c0.147,0.641,0.248,1.284,0.302,1.929c-0.322-0.519-0.68-1.02-1.071-1.496
	c-0.216-0.572-0.467-1.128-0.753-1.662C27.254,12.867,27.763,13.278,28.239,13.724z M28.541,17.913
	c-0.112-0.444-0.248-0.886-0.405-1.323c-0.08-0.449-0.182-0.89-0.304-1.323c0.273,0.394,0.526,0.8,0.755,1.218
	C28.598,16.962,28.581,17.439,28.541,17.913z M21.3,28.587c-0.379,0-0.755-0.018-1.132-0.05c0.443-0.113,0.882-0.248,1.313-0.404
	c0.44-0.079,0.874-0.178,1.299-0.298c-0.39,0.27-0.792,0.52-1.206,0.748C21.481,28.584,21.392,28.587,21.3,28.587z M16.488,28.583
	c-0.416-0.229-0.817-0.478-1.208-0.748c0.426,0.12,0.858,0.219,1.3,0.298c0.431,0.156,0.868,0.291,1.312,0.404
	c-0.376,0.032-0.754,0.05-1.133,0.05C16.669,28.587,16.578,28.584,16.488,28.583z M16.759,9.471c0.379,0,0.757,0.019,1.133,0.051
	c-0.443,0.112-0.881,0.247-1.312,0.404c-0.441,0.078-0.874,0.178-1.3,0.297c0.391-0.27,0.792-0.52,1.207-0.747
	C16.578,9.474,16.668,9.471,16.759,9.471z M21.571,9.476c0.415,0.228,0.818,0.478,1.207,0.747c-0.425-0.119-0.858-0.219-1.298-0.297
	c-0.431-0.157-0.869-0.292-1.313-0.404c0.375-0.032,0.753-0.051,1.133-0.051C21.392,9.471,21.481,9.474,21.571,9.476z
	 M19.029,27.402c-4.616,0-8.373-3.757-8.373-8.373c0-4.617,3.757-8.373,8.373-8.373c4.617,0,8.374,3.756,8.374,8.373
	C27.403,23.646,23.646,27.402,19.029,27.402z M27.104,14.367c-0.036-0.063-0.073-0.122-0.109-0.183
	c0.047,0.055,0.096,0.108,0.142,0.164c0.026,0.071,0.05,0.143,0.074,0.215C27.175,14.498,27.143,14.432,27.104,14.367z
	 M23.692,10.954c-0.062-0.036-0.124-0.069-0.186-0.104c0.062,0.022,0.125,0.042,0.187,0.064c0.057,0.048,0.113,0.096,0.169,0.143
	C23.805,11.023,23.75,10.987,23.692,10.954z M19.271,9.711C19.19,9.71,19.11,9.705,19.029,9.705s-0.161,0.005-0.241,0.006
	c0.08-0.016,0.161-0.03,0.241-0.045C19.11,9.681,19.19,9.695,19.271,9.711z M14.553,10.851c-0.062,0.034-0.124,0.067-0.186,0.104
	c-0.058,0.033-0.112,0.069-0.17,0.104c0.057-0.048,0.112-0.096,0.169-0.143C14.427,10.893,14.491,10.873,14.553,10.851z
	 M10.954,14.366c-0.037,0.064-0.07,0.131-0.105,0.194c0.026-0.075,0.052-0.151,0.08-0.227c0.052-0.062,0.103-0.123,0.155-0.183
	C11.04,14.223,10.996,14.294,10.954,14.366z M10.953,23.691c0.036,0.061,0.074,0.121,0.109,0.182
	c-0.046-0.055-0.094-0.108-0.14-0.164c-0.026-0.07-0.05-0.142-0.075-0.213C10.884,23.562,10.917,23.627,10.953,23.691z
	 M14.367,27.104c0.062,0.035,0.123,0.068,0.185,0.103c-0.062-0.021-0.125-0.042-0.186-0.064c-0.057-0.047-0.112-0.094-0.169-0.142
	C14.255,27.034,14.31,27.071,14.367,27.104z M18.79,28.348c0.08,0.001,0.159,0.006,0.239,0.006c0.081,0,0.161-0.005,0.241-0.006
	c-0.08,0.016-0.16,0.03-0.24,0.044C18.949,28.378,18.87,28.363,18.79,28.348z M23.508,27.207c0.061-0.034,0.123-0.067,0.185-0.103
	c0.058-0.033,0.112-0.07,0.17-0.104c-0.056,0.047-0.111,0.095-0.169,0.142C23.632,27.165,23.569,27.186,23.508,27.207z
	 M27.105,23.691c0.037-0.063,0.069-0.129,0.104-0.192c-0.024,0.07-0.048,0.141-0.074,0.211c-0.045,0.055-0.092,0.108-0.139,0.162
	C27.033,23.812,27.069,23.752,27.105,23.691z M28.348,18.807c0.016,0.079,0.032,0.159,0.045,0.239
	c-0.014,0.083-0.029,0.166-0.045,0.249c0.002-0.089,0.007-0.177,0.007-0.266C28.354,18.954,28.35,18.881,28.348,18.807z
	 M26.689,13.287c-0.314-0.322-0.646-0.632-0.996-0.926c-0.295-0.348-0.604-0.68-0.929-0.995c0.431,0.203,0.852,0.427,1.256,0.673
	C26.266,12.441,26.486,12.858,26.689,13.287z M23.891,10.584c-0.474-0.388-0.971-0.744-1.49-1.066
	c0.655,0.055,1.302,0.155,1.934,0.301c0.445,0.478,0.857,0.986,1.23,1.524C25.027,11.054,24.468,10.801,23.891,10.584z
	 M21.673,9.097c-0.638-0.345-1.302-0.64-1.988-0.881c0.762-0.193,1.543-0.322,2.337-0.38c0.655,0.443,1.268,0.945,1.834,1.494
	C23.141,9.196,22.41,9.117,21.673,9.097z M20.832,9.099c-0.604,0.021-1.207,0.081-1.803,0.181c-0.596-0.1-1.197-0.159-1.803-0.181
	c0.583-0.274,1.185-0.511,1.803-0.701C19.647,8.588,20.25,8.824,20.832,9.099z M16.386,9.097c-0.737,0.021-1.466,0.1-2.182,0.233
	c0.567-0.549,1.179-1.051,1.834-1.494c0.794,0.058,1.575,0.187,2.336,0.38C17.688,8.457,17.023,8.752,16.386,9.097z M15.658,9.518
	c-0.52,0.323-1.016,0.679-1.489,1.066c-0.577,0.217-1.137,0.47-1.675,0.758c0.374-0.537,0.785-1.046,1.23-1.523
	C14.357,9.673,15.003,9.572,15.658,9.518z M13.294,11.366c-0.321,0.313-0.628,0.641-0.918,0.984
	c-0.351,0.293-0.684,0.601-1.001,0.924c0.201-0.424,0.422-0.837,0.664-1.236C12.443,11.793,12.863,11.569,13.294,11.366z
	 M9.712,18.767c-0.002,0.088-0.007,0.175-0.007,0.263c0,0.074,0.004,0.147,0.006,0.222c-0.015-0.079-0.031-0.158-0.045-0.237
	C9.68,18.931,9.696,18.849,9.712,18.767z M11.369,24.771c0.315,0.322,0.647,0.631,0.996,0.925c0.294,0.348,0.604,0.68,0.929,0.995
	c-0.431-0.203-0.851-0.426-1.255-0.672C11.795,25.617,11.572,25.199,11.369,24.771z M14.169,27.474
	c0.474,0.388,0.97,0.745,1.489,1.066c-0.655-0.054-1.301-0.154-1.934-0.301c-0.445-0.477-0.856-0.986-1.23-1.523
	C13.032,27.004,13.592,27.258,14.169,27.474z M16.387,28.962c0.638,0.345,1.302,0.639,1.987,0.881
	c-0.761,0.193-1.542,0.321-2.336,0.38c-0.654-0.444-1.267-0.946-1.834-1.495C14.92,28.862,15.648,28.941,16.387,28.962z
	 M17.227,28.959c0.605-0.02,1.208-0.081,1.804-0.181c0.596,0.1,1.197,0.16,1.804,0.181c-0.584,0.275-1.186,0.511-1.804,0.701
	C18.411,29.47,17.81,29.234,17.227,28.959z M21.673,28.961c0.738-0.02,1.468-0.1,2.183-0.233c-0.566,0.549-1.179,1.051-1.834,1.494
	c-0.794-0.058-1.575-0.186-2.337-0.379C20.371,29.601,21.035,29.306,21.673,28.961z M22.402,28.54
	c0.518-0.322,1.016-0.679,1.488-1.066c0.577-0.216,1.137-0.47,1.674-0.758c-0.373,0.537-0.785,1.047-1.229,1.523
	C23.702,28.386,23.057,28.486,22.402,28.54z M24.766,26.691c0.324-0.315,0.635-0.647,0.928-0.995
	c0.35-0.294,0.682-0.603,0.996-0.925c-0.203,0.429-0.425,0.846-0.669,1.248C25.616,26.266,25.196,26.488,24.766,26.691z
	 M27.832,22.791c0.121-0.428,0.221-0.863,0.3-1.307c0.157-0.428,0.29-0.86,0.403-1.298c0.038,0.468,0.055,0.936,0.044,1.401
	C28.353,22.001,28.103,22.401,27.832,22.791z M28.964,16.385c-0.021-0.727-0.099-1.456-0.235-2.181
	c0.546,0.563,1.047,1.174,1.489,1.827c-0.057,0.791-0.187,1.573-0.38,2.339C29.599,17.688,29.308,17.024,28.964,16.385z
	 M28.069,13.062c-0.555-0.477-1.147-0.913-1.773-1.299c-0.385-0.626-0.82-1.217-1.298-1.771c0.77,0.22,1.518,0.506,2.232,0.854
	C27.571,11.552,27.852,12.293,28.069,13.062z M24.531,9.474c-0.58-0.61-1.215-1.17-1.896-1.668c0.12-0.004,0.241-0.007,0.363-0.007
	c0.806,0,1.608,0.075,2.398,0.22c0.594,0.701,1.112,1.464,1.552,2.276C26.172,9.95,25.364,9.674,24.531,9.474z M22.998,7.419
	c-0.294,0-0.586,0.01-0.877,0.028c-0.789-0.524-1.636-0.968-2.527-1.323c0.973-0.303,1.993-0.494,3.046-0.568
	c0.867,0.585,1.656,1.258,2.354,2.012C24.334,7.47,23.667,7.419,22.998,7.419z M21.501,7.502c-0.843,0.092-1.67,0.26-2.472,0.499
	c-0.802-0.239-1.629-0.407-2.472-0.499c0.776-0.476,1.604-0.875,2.472-1.188C19.898,6.627,20.726,7.026,21.501,7.502z M15.938,7.447
	c-0.29-0.019-0.583-0.028-0.876-0.028c-0.667,0-1.333,0.051-1.991,0.147c0.689-0.747,1.477-1.421,2.35-2.011
	c1.053,0.074,2.073,0.266,3.046,0.568C17.574,6.479,16.728,6.923,15.938,7.447z M15.062,7.799c0.121,0,0.242,0.003,0.363,0.007
	c-0.683,0.498-1.316,1.058-1.897,1.668c-0.828,0.199-1.633,0.474-2.406,0.817c0.435-0.804,0.954-1.566,1.553-2.275
	C13.46,7.874,14.259,7.799,15.062,7.799z M13.061,9.991c-0.477,0.555-0.911,1.146-1.297,1.771c-0.624,0.384-1.213,0.817-1.766,1.292
	c0.215-0.76,0.494-1.5,0.839-2.213C11.551,10.494,12.294,10.21,13.061,9.991z M9.34,14.194c-0.133,0.711-0.214,1.432-0.235,2.158
	c-0.347,0.64-0.642,1.311-0.887,2.007c-0.191-0.763-0.319-1.542-0.376-2.328C8.286,15.375,8.789,14.762,9.34,14.194z M9.104,17.197
	c0.019,0.604,0.077,1.21,0.177,1.813c-0.101,0.6-0.165,1.205-0.186,1.813c-0.274-0.585-0.506-1.188-0.694-1.806
	C8.593,18.391,8.829,17.782,9.104,17.197z M9.096,21.674c0.02,0.727,0.1,1.455,0.235,2.181c-0.549-0.566-1.052-1.18-1.496-1.836
	c0.059-0.783,0.186-1.565,0.383-2.342C8.458,20.362,8.75,21.03,9.096,21.674z M9.989,24.996c0.556,0.478,1.147,0.913,1.773,1.3
	c0.387,0.625,0.821,1.216,1.298,1.771c-0.77-0.22-1.518-0.507-2.232-0.855C10.487,26.506,10.207,25.766,9.989,24.996z
	 M13.527,28.584c0.581,0.611,1.215,1.171,1.897,1.669c-0.121,0.003-0.242,0.006-0.363,0.006c-0.806,0-1.608-0.075-2.399-0.219
	c-0.594-0.702-1.111-1.465-1.552-2.277C11.887,28.108,12.695,28.385,13.527,28.584z M15.062,30.64c0.293,0,0.586-0.011,0.877-0.029
	c0.79,0.524,1.637,0.968,2.527,1.324c-0.974,0.302-1.993,0.494-3.047,0.567c-0.867-0.584-1.656-1.258-2.354-2.011
	C13.725,30.588,14.392,30.64,15.062,30.64z M16.558,30.557c0.843-0.092,1.671-0.26,2.473-0.5c0.802,0.24,1.628,0.408,2.471,0.5
	c-0.775,0.476-1.603,0.874-2.472,1.187C18.161,31.431,17.334,31.032,16.558,30.557z M22.121,30.61
	c0.291,0.019,0.583,0.028,0.877,0.028c0.667,0,1.333-0.051,1.991-0.146c-0.69,0.746-1.477,1.421-2.35,2.01
	c-1.053-0.074-2.073-0.266-3.046-0.567C20.485,31.578,21.332,31.135,22.121,30.61z M22.998,30.259c-0.122,0-0.243-0.003-0.363-0.006
	c0.683-0.498,1.316-1.058,1.896-1.669c0.829-0.199,1.635-0.474,2.407-0.817c-0.436,0.804-0.954,1.566-1.552,2.275
	C24.6,30.185,23.801,30.259,22.998,30.259z M25,28.067c0.476-0.556,0.911-1.146,1.296-1.771c0.624-0.385,1.212-0.817,1.766-1.292
	c-0.216,0.759-0.495,1.5-0.84,2.212C26.51,27.563,25.766,27.848,25,28.067z M28.719,23.863c0.136-0.716,0.216-1.443,0.237-2.175
	c0.348-0.645,0.641-1.313,0.882-2.001c0.193,0.767,0.323,1.549,0.38,2.34C29.772,22.683,29.271,23.296,28.719,23.863z
	 M30.052,19.029c0.24-0.81,0.408-1.64,0.499-2.481c0.479,0.778,0.879,1.608,1.193,2.48c-0.314,0.872-0.715,1.703-1.193,2.481
	C30.46,20.669,30.292,19.839,30.052,19.029z M30.604,15.928c0.06-0.947,0.022-1.903-0.116-2.854
	c0.753,0.695,1.431,1.479,2.014,2.341c-0.072,1.055-0.265,2.076-0.567,3.051C31.578,17.57,31.132,16.72,30.604,15.928z
	 M29.925,12.094c-0.748-0.591-1.554-1.104-2.406-1.529c-0.427-0.864-0.943-1.676-1.537-2.427c1.003,0.229,1.979,0.572,2.908,1.024
	C29.354,10.113,29.7,11.097,29.925,12.094z M25.595,7.668c-0.687-0.796-1.468-1.514-2.329-2.141c0.109-0.003,0.22-0.009,0.331-0.009
	c1.042,0,2.057,0.122,3.031,0.347c0.69,0.739,1.303,1.56,1.818,2.454c0.057,0.096,0.105,0.193,0.158,0.291
	C27.639,8.183,26.629,7.866,25.595,7.668z M21.83,5.045c0.096,0.056,0.188,0.115,0.282,0.173c-1.068,0.114-2.101,0.352-3.083,0.694
	c-0.982-0.343-2.015-0.58-3.083-0.694c0.094-0.058,0.187-0.117,0.282-0.173c0.889-0.513,1.828-0.92,2.8-1.219
	C20.001,4.125,20.941,4.532,21.83,5.045z M14.463,5.519c0.11,0,0.22,0.006,0.331,0.009c-0.867,0.632-1.641,1.352-2.319,2.139
	c-1.038,0.198-2.051,0.515-3.021,0.944c0.052-0.097,0.103-0.195,0.159-0.292c0.515-0.894,1.127-1.715,1.818-2.453
	C12.406,5.641,13.421,5.519,14.463,5.519z M12.088,8.136c-0.596,0.756-1.109,1.567-1.532,2.421
	c-0.857,0.427-1.669,0.943-2.422,1.537c0.226-0.997,0.57-1.979,1.034-2.932C10.102,8.708,11.082,8.364,12.088,8.136z M7.57,13.073
	c-0.138,0.951-0.176,1.907-0.115,2.854c-0.528,0.792-0.974,1.643-1.331,2.538c-0.303-0.975-0.493-1.996-0.567-3.051
	C6.141,14.553,6.817,13.769,7.57,13.073z M7.508,16.548c0.091,0.838,0.258,1.664,0.497,2.47c-0.037,0.123-0.076,0.246-0.109,0.371
	c-0.188,0.699-0.317,1.403-0.396,2.109c-0.474-0.775-0.872-1.602-1.186-2.469C6.63,18.157,7.03,17.326,7.508,16.548z M7.445,22.116
	c-0.063,0.959-0.021,1.916,0.116,2.86c-0.75-0.693-1.424-1.475-2.005-2.333c0.074-1.054,0.265-2.076,0.567-3.051
	C6.479,20.482,6.922,21.328,7.445,22.116z M8.129,25.961c0.751,0.592,1.559,1.106,2.411,1.533c0.427,0.864,0.943,1.675,1.537,2.426
	c-1.003-0.229-1.979-0.571-2.909-1.024C8.706,27.951,8.358,26.968,8.129,25.961z M12.464,30.39c0.688,0.796,1.467,1.515,2.33,2.142
	c-0.111,0.003-0.221,0.009-0.331,0.009c-1.042,0-2.057-0.123-3.031-0.348c-0.691-0.738-1.303-1.559-1.818-2.453
	c-0.057-0.097-0.107-0.194-0.16-0.292C10.42,29.876,11.431,30.191,12.464,30.39z M16.229,33.013
	c-0.097-0.056-0.189-0.115-0.283-0.172c1.068-0.114,2.101-0.353,3.083-0.695c0.983,0.343,2.016,0.58,3.084,0.695
	c-0.095,0.057-0.187,0.116-0.283,0.172c-0.888,0.514-1.828,0.921-2.801,1.219C18.059,33.934,17.118,33.525,16.229,33.013z
	 M23.597,32.54c-0.111,0-0.221-0.006-0.331-0.009c0.867-0.632,1.64-1.352,2.318-2.139c1.038-0.199,2.052-0.516,3.022-0.945
	c-0.054,0.098-0.104,0.195-0.16,0.292c-0.516,0.894-1.128,1.715-1.817,2.453C25.653,32.417,24.64,32.54,23.597,32.54z
	 M25.972,29.923c0.597-0.758,1.109-1.569,1.532-2.421c0.856-0.429,1.669-0.943,2.422-1.538c-0.225,0.997-0.571,1.98-1.035,2.932
	C27.958,29.35,26.977,29.693,25.972,29.923z M30.488,24.984c0.139-0.951,0.176-1.907,0.116-2.854
	c0.527-0.793,0.974-1.644,1.33-2.539c0.303,0.975,0.495,1.997,0.569,3.051C31.919,23.505,31.242,24.289,30.488,24.984z
	 M32.146,19.028c0.345-0.983,0.582-2.018,0.696-3.087c0.057,0.095,0.116,0.189,0.172,0.287c0.521,0.903,0.922,1.843,1.216,2.8
	c-0.294,0.958-0.694,1.898-1.217,2.801c-0.055,0.097-0.112,0.192-0.171,0.287C32.728,21.046,32.49,20.013,32.146,19.028z
	 M33.344,16.038c-0.143-0.248-0.294-0.489-0.452-0.727c0.018-0.281,0.029-0.563,0.029-0.849c0-0.866-0.082-1.718-0.235-2.551
	c0.845,0.873,1.561,1.844,2.132,2.887c0.026,1.19-0.108,2.391-0.405,3.57C34.133,17.574,33.78,16.794,33.344,16.038z M29.931,9.282
	c-0.248-0.143-0.499-0.277-0.755-0.404c-0.125-0.252-0.257-0.503-0.399-0.749c-0.433-0.75-0.933-1.448-1.486-2.093
	c1.176,0.335,2.288,0.821,3.312,1.443c0.623,1.029,1.101,2.136,1.428,3.292C31.387,10.222,30.688,9.72,29.931,9.282z M23.345,2.858
	c-1.003-0.542-2.071-0.961-3.185-1.245c0.387-0.033,0.775-0.052,1.166-0.052c0.792,0,1.58,0.072,2.355,0.211
	c1.089,0.398,2.122,0.939,3.08,1.61C25.659,3.069,24.513,2.89,23.345,2.858z M22.504,2.86c-1.179,0.04-2.347,0.232-3.476,0.569
	C17.9,3.093,16.733,2.9,15.555,2.86c1.098-0.519,2.266-0.892,3.476-1.101C20.239,1.969,21.407,2.342,22.504,2.86z M14.714,2.858
	c-1.159,0.031-2.299,0.209-3.394,0.518c0.948-0.661,1.982-1.206,3.087-1.609c0.766-0.136,1.544-0.205,2.326-0.205
	c0.392,0,0.78,0.019,1.166,0.052C16.786,1.897,15.718,2.316,14.714,2.858z M10.769,6.036c-0.554,0.645-1.054,1.343-1.486,2.092
	c-0.143,0.248-0.274,0.498-0.4,0.75C8.628,9.006,8.377,9.14,8.129,9.282c-0.749,0.433-1.446,0.929-2.091,1.479
	c0.334-1.169,0.817-2.273,1.435-3.291C8.49,6.853,9.599,6.369,10.769,6.036z M5.045,16.229c0.056-0.097,0.115-0.192,0.173-0.287
	c0.113,1.07,0.352,2.104,0.696,3.088c-0.345,0.984-0.583,2.018-0.696,3.088c-0.058-0.096-0.117-0.19-0.173-0.288
	c-0.522-0.904-0.923-1.847-1.217-2.806C4.125,18.06,4.529,17.123,5.045,16.229z M8.129,28.776c0.248,0.143,0.499,0.276,0.754,0.403
	c0.126,0.253,0.258,0.504,0.4,0.75c0.432,0.75,0.932,1.448,1.485,2.093c-1.176-0.335-2.288-0.821-3.31-1.443
	c-0.624-1.03-1.103-2.137-1.429-3.293C6.672,27.837,7.371,28.339,8.129,28.776z M14.715,35.2c1.003,0.542,2.071,0.961,3.185,1.244
	c-0.386,0.034-0.775,0.053-1.166,0.053c-0.791,0-1.58-0.072-2.354-0.211c-1.09-0.398-2.122-0.939-3.081-1.61
	C12.4,34.988,13.546,35.168,14.715,35.2z M15.555,35.198c1.18-0.04,2.347-0.233,3.476-0.569c1.128,0.336,2.296,0.528,3.475,0.568
	c-1.098,0.519-2.266,0.892-3.476,1.102C17.819,36.089,16.652,35.716,15.555,35.198z M23.345,35.199
	c1.161-0.031,2.3-0.208,3.395-0.518c-0.948,0.661-1.982,1.206-3.086,1.61c-0.767,0.135-1.546,0.205-2.327,0.205
	c-0.392,0-0.78-0.019-1.166-0.053C21.273,36.161,22.342,35.742,23.345,35.199z M27.291,32.021c0.553-0.645,1.053-1.342,1.485-2.092
	c0.144-0.247,0.274-0.498,0.4-0.75c0.255-0.127,0.506-0.262,0.754-0.404c0.748-0.432,1.446-0.93,2.091-1.479
	c-0.334,1.168-0.817,2.273-1.435,3.29C29.568,31.205,28.461,31.688,27.291,32.021z M32.893,22.745
	c0.157-0.236,0.309-0.479,0.451-0.726c0.437-0.756,0.789-1.537,1.068-2.331c0.299,1.185,0.433,2.391,0.405,3.587
	c-0.579,1.055-1.3,2.021-2.137,2.883c0.155-0.831,0.24-1.687,0.24-2.563C32.921,23.31,32.909,23.026,32.893,22.745z M34.771,13.968
	c-0.615-0.991-1.361-1.91-2.228-2.732c-0.272-1.149-0.688-2.256-1.241-3.295c1,0.696,1.901,1.522,2.68,2.457
	C34.403,11.544,34.669,12.746,34.771,13.968z M30.878,7.205c-0.566-0.92-1.242-1.782-2.025-2.565
	c-0.038-0.038-0.078-0.074-0.117-0.111c1.062,0.501,2.056,1.137,2.954,1.894c0.746,0.896,1.363,1.88,1.849,2.919
	C32.743,8.525,31.851,7.807,30.878,7.205z M6.369,6.422c0.904-0.761,1.905-1.4,2.973-1.902C8.522,5.318,7.8,6.216,7.197,7.195
	C6.218,7.799,5.32,8.521,4.521,9.34C5.007,8.301,5.624,7.317,6.369,6.422z M6.776,7.927c-0.551,1.028-0.975,2.134-1.253,3.296
	c-0.859,0.811-1.61,1.724-2.232,2.723c0.103-1.214,0.367-2.408,0.787-3.549C4.861,9.457,5.77,8.626,6.776,7.927z M2.024,17.815
	c0.213-0.796,0.497-1.561,0.842-2.29c0.035,1.172,0.223,2.346,0.563,3.496c-0.339,1.132-0.532,2.298-0.573,3.475
	c-0.519-1.107-0.889-2.28-1.095-3.483C1.832,18.612,1.918,18.213,2.024,17.815z M3.696,26.48c-0.214-0.796-0.35-1.6-0.417-2.403
	c0.617,0.996,1.366,1.92,2.236,2.745c0.272,1.15,0.688,2.257,1.242,3.296c-1.004-0.7-1.91-1.53-2.69-2.47
	C3.928,27.267,3.803,26.878,3.696,26.48z M7.183,30.854c0.565,0.92,1.241,1.781,2.024,2.565c0.038,0.038,0.078,0.073,0.116,0.11
	c-1.068-0.504-2.069-1.146-2.974-1.909c-0.736-0.886-1.355-1.865-1.845-2.919C5.304,29.522,6.202,30.248,7.183,30.854z
	 M31.691,31.636c-0.906,0.761-1.906,1.4-2.975,1.902c0.82-0.799,1.543-1.696,2.146-2.676c0.979-0.604,1.878-1.326,2.676-2.146
	C33.053,29.757,32.436,30.739,31.691,31.636z M31.283,30.131c0.551-1.028,0.974-2.135,1.252-3.296
	c0.86-0.811,1.61-1.723,2.233-2.723c-0.104,1.214-0.367,2.408-0.787,3.549C33.198,28.601,32.29,29.432,31.283,30.131z
	 M35.193,23.378c0.514-0.951,0.923-1.967,1.21-3.037c0.014-0.052,0.023-0.104,0.037-0.156c0.098,1.149,0.053,2.315-0.149,3.47
	c-0.404,1.106-0.952,2.145-1.616,3.096C34.982,25.654,35.158,24.521,35.193,23.378z M36.684,19.049
	c0.141-0.828,0.203-1.661,0.193-2.49c0.149,0.802,0.229,1.627,0.229,2.47c0,0.859-0.083,1.7-0.238,2.516
	C36.881,20.706,36.82,19.871,36.684,19.049z M34.863,10.315c0.035,0.066,0.074,0.133,0.109,0.2c0.024,0.046,0.047,0.094,0.071,0.14
	c0.272,0.538,0.506,1.089,0.702,1.649c-0.414-0.744-0.892-1.448-1.43-2.102c-0.293-0.784-0.66-1.543-1.092-2.266
	c0.339,0.394,0.658,0.809,0.953,1.243C34.418,9.551,34.648,9.928,34.863,10.315z M4.835,7.937C4.402,8.66,4.037,9.418,3.743,10.202
	c-0.533,0.648-1.009,1.347-1.42,2.085c0.191-0.548,0.419-1.089,0.687-1.62c0.023-0.046,0.047-0.093,0.071-0.139
	c0.038-0.072,0.078-0.144,0.117-0.216c0.215-0.389,0.445-0.768,0.687-1.138C4.18,8.742,4.496,8.329,4.835,7.937z M3.193,27.737
	c-0.034-0.063-0.07-0.127-0.103-0.19c-0.027-0.049-0.052-0.101-0.078-0.15c-0.271-0.535-0.503-1.084-0.699-1.643
	c0.41,0.738,0.885,1.438,1.417,2.085c0.292,0.786,0.653,1.537,1.075,2.248c-0.328-0.383-0.637-0.784-0.922-1.206
	C3.641,28.508,3.409,28.128,3.193,27.737z M33.226,30.12c0.431-0.723,0.798-1.48,1.091-2.266c0.534-0.647,1.009-1.346,1.421-2.084
	c-0.194,0.551-0.422,1.095-0.691,1.628c-0.021,0.041-0.041,0.082-0.063,0.122c-0.041,0.078-0.085,0.156-0.129,0.234
	c-0.212,0.384-0.438,0.757-0.677,1.122C33.883,29.313,33.565,29.727,33.226,30.12z"/>
</svg>
