<?xml version="1.0" encoding="utf-8"?>
<!-- Generator: Adobe Illustrator 16.0.0, SVG Export Plug-In . SVG Version: 6.00 Build 0)  -->
<!DOCTYPE svg PUBLIC "-//W3C//DTD SVG 1.1//EN" "http://www.w3.org/Graphics/SVG/1.1/DTD/svg11.dtd">
<svg version="1.1" id="레이어_1" xmlns="http://www.w3.org/2000/svg" xmlns:xlink="http://www.w3.org/1999/xlink" x="0px"
	 y="0px" width="170.078px" height="170.078px" viewBox="0 0 170.078 170.078" enable-background="new 0 0 170.078 170.078"
	 xml:space="preserve">
<path fill="#41AE94" d="M85.04,6.005c-43.577,0-79.035,35.459-79.035,79.034c0,43.58,35.458,79.034,79.035,79.034
	c43.581,0,79.033-35.454,79.033-79.034C164.073,41.464,128.621,6.005,85.04,6.005z M9.955,85.039c0-0.969,0.043-1.926,0.076-2.882
	c0.131-2.576,0.449-5.096,0.916-7.565c-0.048,3.48,0.205,6.951,0.772,10.363c-0.589,3.442-0.846,6.903-0.802,10.346
	c-0.449-2.41-0.761-4.869-0.887-7.378C9.998,86.965,9.955,86.009,9.955,85.039z M124.208,149.067
	c-0.162,0.099-0.321,0.198-0.483,0.296c-0.952,0.576-1.918,1.136-2.901,1.668c-2.519,1.338-5.133,2.478-7.811,3.413
	c3.075-1.712,5.981-3.688,8.679-5.91c3.306-1.244,6.487-2.791,9.507-4.605c-1.746,1.507-3.602,2.918-5.562,4.223
	C125.16,148.458,124.694,148.771,124.208,149.067z M82.19,160.051c-2.546-0.126-5.057-0.433-7.527-0.893
	c0.277,0.004,0.557,0.016,0.841,0.016c3.223,0,6.411-0.274,9.536-0.801c3.128,0.526,6.313,0.801,9.54,0.801
	c0.257,0,0.506-0.012,0.759-0.016c-3.34,0.62-6.779,0.965-10.295,0.965H85.04c-0.168,0-0.325-0.011-0.495-0.016
	C83.76,160.104,82.978,160.081,82.19,160.051z M46.293,149.329c-0.107-0.069-0.222-0.136-0.325-0.201
	c-0.532-0.326-1.05-0.67-1.565-1.008c-1.966-1.306-3.834-2.717-5.591-4.235c3.016,1.822,6.199,3.374,9.509,4.623
	c2.691,2.232,5.568,4.186,8.573,5.874c-2.613-0.923-5.166-2.037-7.631-3.343C48.259,150.491,47.271,149.918,46.293,149.329z
	 M12.714,89.662c1.164,4.619,2.892,9.09,5.157,13.303c0.126,4.486,0.767,8.99,1.955,13.434c0.061,0.218,0.129,0.429,0.19,0.643
	c-2.763-3.963-5.033-8.293-6.709-12.91C12.476,99.374,12.28,94.519,12.714,89.662z M13.35,65.825
	c1.68-4.596,3.956-8.904,6.717-12.854c-1.282,4.553-2.018,9.257-2.16,14.008c-2.134,3.947-3.83,8.167-5.021,12.612
	c-0.059,0.214-0.102,0.434-0.157,0.649C12.322,75.467,12.511,70.62,13.35,65.825z M45.91,20.989
	c0.137-0.085,0.279-0.169,0.418-0.255c0.968-0.586,1.949-1.153,2.945-1.696c0.309-0.165,0.621-0.322,0.937-0.48
	c0.182-0.099,0.362-0.188,0.549-0.281c2.053-1.011,4.163-1.89,6.311-2.644c-3.073,1.714-5.981,3.688-8.678,5.914
	c-3.309,1.244-6.487,2.79-9.51,4.606c1.742-1.499,3.586-2.908,5.543-4.209C44.913,21.627,45.406,21.298,45.91,20.989z M85.04,9.958
	c0.008,0,0.019,0,0.027,0c0.944,0,1.889,0.037,2.829,0.072c2.55,0.129,5.062,0.435,7.531,0.896
	c-0.282-0.007-0.565-0.016-0.848-0.016c-3.225,0-6.412,0.272-9.536,0.798c-3.125-0.527-6.317-0.798-9.54-0.798
	c-0.257,0-0.51,0.009-0.767,0.013c3.198-0.597,6.481-0.926,9.843-0.95C84.733,9.968,84.887,9.958,85.04,9.958z M123.735,20.723
	c0.153,0.094,0.307,0.188,0.456,0.281c0.497,0.302,0.969,0.619,1.451,0.929c1.956,1.306,3.81,2.716,5.556,4.219
	c-2.999-1.802-6.156-3.341-9.435-4.578c-2.697-2.232-5.571-4.186-8.579-5.875c2.618,0.923,5.17,2.037,7.637,3.348
	C121.807,19.581,122.774,20.145,123.735,20.723z M157.366,80.417c-1.172-4.641-2.908-9.134-5.19-13.365
	c-0.135-4.777-0.872-9.503-2.158-14.078c2.784,3.981,5.072,8.336,6.757,12.978C157.603,70.708,157.802,75.564,157.366,80.417z
	 M152.174,99.589c-0.151-4.874-0.93-9.76-2.353-14.55c1.416-4.768,2.195-9.632,2.349-14.484c2.175,4.626,3.726,9.524,4.588,14.554
	c-0.292,1.662-0.648,3.32-1.09,4.971C154.781,93.384,153.599,96.56,152.174,99.589z M120.884,147.146
	c-4.75,1.76-9.756,2.886-14.899,3.305c4.178-2.59,8.026-5.716,11.438-9.308c4.841-1.157,9.443-2.914,13.729-5.211
	C128.244,140.118,124.792,143.892,120.884,147.146z M45.363,143.686c-2.422-2.42-4.582-5.029-6.487-7.778
	c4.298,2.306,8.923,4.075,13.782,5.235c3.413,3.592,7.26,6.718,11.436,9.31c-5.162-0.424-10.193-1.559-14.961-3.331
	C47.832,146.037,46.572,144.896,45.363,143.686z M21.136,87.745c1.168,3.311,2.637,6.565,4.455,9.719
	c0.592,1.028,1.222,2.032,1.874,3.014c-0.072,1.168-0.115,2.343-0.115,3.531c0,3.591,0.337,7.131,0.976,10.589
	c-3.525-3.642-6.511-7.692-8.891-12.046C19.331,97.554,19.909,92.583,21.136,87.745z M19.468,67.402
	c2.411-4.381,5.396-8.395,8.88-11.974c-0.65,3.452-1.003,7.007-1.003,10.646c0,1.188,0.048,2.362,0.12,3.531
	c-0.652,0.982-1.282,1.987-1.874,3.015c-1.794,3.11-3.271,6.345-4.445,9.66C19.911,77.364,19.354,72.363,19.468,67.402z
	 M49.197,22.935c4.751-1.76,9.762-2.886,14.896-3.305c-4.176,2.59-8.022,5.716-11.436,9.308c-4.837,1.153-9.443,2.915-13.727,5.209
	C41.84,29.96,45.295,26.188,49.197,22.935z M124.72,26.396c2.421,2.419,4.575,5.028,6.486,7.781c-4.3-2.31-8.925-4.078-13.786-5.239
	c-3.409-3.592-7.258-6.718-11.436-9.308c5.164,0.423,10.193,1.557,14.967,3.329C122.25,24.043,123.508,25.185,124.72,26.396z
	 M141.154,104.007c0,4.341-0.514,8.562-1.449,12.623c-3.07,2.847-6.467,5.379-10.183,7.521c-0.406,0.233-0.81,0.454-1.216,0.676
	c1.818-4.09,3.111-8.311,3.917-12.569c3.297-2.843,6.284-6.07,8.896-9.636C141.132,103.084,141.154,103.542,141.154,104.007z
	 M101.415,150.646c-4.608,0-9.189-0.582-13.641-1.708c3.345-1.179,6.591-2.661,9.688-4.449c1.031-0.596,2.027-1.228,3.009-1.874
	c1.169,0.071,2.347,0.121,3.538,0.121c3.618,0,7.154-0.354,10.59-0.992c-3.616,3.494-7.672,6.478-12.057,8.883
	C102.167,150.635,101.79,150.646,101.415,150.646z M67.54,150.627c-4.385-2.405-8.44-5.389-12.053-8.883
	c3.432,0.639,6.972,0.992,10.586,0.992c1.191,0,2.363-0.05,3.538-0.121c0.981,0.649,1.982,1.278,3.012,1.872
	c3.09,1.79,6.342,3.272,9.685,4.451c-4.451,1.126-9.03,1.71-13.639,1.71C68.288,150.648,67.913,150.637,67.54,150.627z
	 M28.963,102.626c2.598,3.55,5.573,6.767,8.858,9.602c0.82,4.309,2.142,8.532,3.954,12.604c-0.412-0.222-0.818-0.444-1.216-0.677
	c-3.762-2.17-7.162-4.728-10.209-7.569c-0.933-4.078-1.425-8.291-1.425-12.576C28.926,103.543,28.952,103.085,28.963,102.626z
	 M28.926,66.074c0-4.341,0.514-8.564,1.447-12.624c3.074-2.845,6.469-5.379,10.187-7.521c0.397-0.234,0.804-0.456,1.216-0.677
	c-1.818,4.092-3.106,8.31-3.919,12.569c-3.295,2.842-6.288,6.071-8.897,9.638C28.948,66.995,28.926,66.537,28.926,66.074z
	 M68.665,19.434c4.61,0,9.191,0.584,13.643,1.709c-3.347,1.178-6.595,2.664-9.688,4.451c-1.03,0.595-2.026,1.225-3.008,1.871
	c-1.175-0.071-2.347-0.121-3.538-0.121c-3.614,0-7.154,0.354-10.586,0.992c3.612-3.494,7.668-6.476,12.053-8.883
	C67.913,19.446,68.288,19.434,68.665,19.434z M102.542,19.451c4.381,2.407,8.44,5.391,12.053,8.885
	c-3.436-0.639-6.974-0.992-10.586-0.992c-1.193,0-2.369,0.05-3.544,0.121c-0.979-0.646-1.974-1.276-3.006-1.871
	c-3.094-1.787-6.342-3.273-9.691-4.451c4.456-1.125,9.037-1.709,13.642-1.709C101.79,19.434,102.167,19.446,102.542,19.451z
	 M141.119,67.454c-2.611-3.563-5.599-6.792-8.899-9.634c-0.804-4.258-2.099-8.478-3.917-12.571c0.408,0.225,0.813,0.444,1.22,0.677
	c3.762,2.17,7.158,4.726,10.207,7.569c0.93,4.079,1.425,8.292,1.425,12.579C141.154,66.537,141.132,66.993,141.119,67.454z
	 M130.78,111.407c-2.923,2.471-6.086,4.637-9.445,6.466c1.421-3.212,2.535-6.54,3.354-9.942c2.541-2.413,4.873-5.052,6.944-7.89
	C131.736,103.822,131.457,107.629,130.78,111.407z M38.42,100.004c2.073,2.841,4.397,5.479,6.943,7.892
	c0.122,0.519,0.235,1.042,0.375,1.561c0.776,2.894,1.765,5.693,2.949,8.386c-3.348-1.827-6.504-3.994-9.422-6.461
	C38.59,107.631,38.313,103.824,38.42,100.004z M39.303,58.674c2.92-2.473,6.087-4.638,9.442-6.464
	c-1.419,3.208-2.533,6.537-3.349,9.941c-2.548,2.411-4.874,5.048-6.951,7.887C38.346,66.258,38.625,62.448,39.303,58.674z
	 M131.633,70.038c-2.063-2.822-4.378-5.45-6.913-7.854c-0.123-0.519-0.236-1.042-0.375-1.561c-0.777-2.894-1.77-5.69-2.95-8.386
	c3.331,1.821,6.476,3.977,9.386,6.436C131.453,62.448,131.732,66.256,131.633,70.038z M126.261,92.583
	c-0.081-2.488-0.326-4.981-0.731-7.461c0.42-2.492,0.686-5.008,0.769-7.54c1.137,2.419,2.096,4.91,2.873,7.457
	C128.386,87.617,127.412,90.137,126.261,92.583z M123.259,107.107c-1.97,1.836-4.07,3.53-6.294,5.073
	c1.19-2.219,2.236-4.522,3.129-6.9c1.614-1.966,3.087-4.021,4.412-6.163C124.284,101.811,123.866,104.479,123.259,107.107z
	 M46.788,107.072c-0.613-2.655-1.027-5.332-1.251-8.01c1.334,2.159,2.823,4.233,4.449,6.214c0.895,2.38,1.94,4.685,3.125,6.904
	C50.881,110.631,48.771,108.924,46.788,107.072z M45.541,89.678c0.464,1.846,1.023,3.677,1.682,5.495
	c0.327,1.862,0.752,3.691,1.256,5.492c-1.131-1.634-2.182-3.318-3.132-5.054C45.305,93.625,45.369,91.647,45.541,89.678z
	 M45.378,74.346c0.959-1.738,2.002-3.419,3.138-5.04c-0.518,1.814-0.944,3.664-1.282,5.543c-0.648,1.774-1.203,3.57-1.67,5.384
	C45.4,78.271,45.336,76.308,45.378,74.346z M46.819,62.976c1.974-1.841,4.078-3.537,6.292-5.076
	c-1.172,2.195-2.21,4.479-3.097,6.832c-1.607,1.948-3.096,3.992-4.435,6.138C45.811,68.207,46.225,65.568,46.819,62.976z
	 M123.292,63.006c0.613,2.658,1.027,5.335,1.253,8.013c-1.338-2.156-2.825-4.235-4.451-6.216c-0.893-2.379-1.938-4.684-3.129-6.903
	C119.201,59.451,121.312,61.156,123.292,63.006z M124.545,80.405c-0.468-1.844-1.031-3.681-1.686-5.496
	c-0.329-1.865-0.752-3.693-1.26-5.496c1.138,1.636,2.186,3.322,3.134,5.057C124.777,76.457,124.711,78.437,124.545,80.405z
	 M94.469,124.738c-1.57,0-3.136-0.076-4.7-0.21c1.844-0.469,3.662-1.026,5.452-1.68c1.828-0.325,3.629-0.737,5.392-1.234
	c-1.616,1.12-3.285,2.156-5.011,3.104C95.223,124.726,94.85,124.738,94.469,124.738z M74.485,124.718
	c-1.726-0.945-3.396-1.981-5.017-3.104c1.767,0.497,3.564,0.909,5.396,1.236c1.791,0.651,3.607,1.209,5.449,1.678
	c-1.56,0.134-3.132,0.21-4.704,0.21C75.234,124.738,74.859,124.726,74.485,124.718z M75.609,45.344c1.572,0,3.145,0.074,4.704,0.21
	c-1.842,0.467-3.658,1.026-5.449,1.678c-1.831,0.325-3.629,0.737-5.396,1.235c1.621-1.123,3.291-2.158,5.012-3.104
	C74.855,45.354,75.23,45.344,75.609,45.344z M95.598,45.362c1.721,0.946,3.398,1.981,5.015,3.104
	c-1.77-0.497-3.565-0.91-5.392-1.235c-1.79-0.651-3.612-1.211-5.454-1.678c1.56-0.136,3.132-0.21,4.706-0.21
	C94.85,45.344,95.223,45.354,95.598,45.362z M85.04,119.814c-19.172,0-34.774-15.6-34.774-34.775
	c0-19.174,15.603-34.774,34.774-34.774c19.176,0,34.776,15.601,34.776,34.774C119.816,104.215,104.216,119.814,85.04,119.814z
	 M118.578,65.677c-0.147-0.258-0.303-0.507-0.454-0.76c0.193,0.229,0.396,0.454,0.589,0.686c0.109,0.292,0.205,0.592,0.307,0.891
	C118.872,66.222,118.737,65.946,118.578,65.677z M104.406,51.501c-0.257-0.149-0.516-0.283-0.771-0.429
	c0.255,0.094,0.518,0.176,0.772,0.271c0.236,0.196,0.475,0.393,0.706,0.591C104.872,51.792,104.645,51.643,104.406,51.501z
	 M86.047,46.339c-0.338-0.003-0.669-0.026-1.007-0.026s-0.671,0.023-1,0.026c0.329-0.065,0.664-0.127,1-0.184
	C85.378,46.212,85.709,46.273,86.047,46.339z M66.446,51.072c-0.257,0.146-0.516,0.279-0.769,0.429
	c-0.24,0.139-0.468,0.288-0.706,0.429c0.234-0.196,0.466-0.394,0.7-0.587C65.925,51.248,66.189,51.166,66.446,51.072z
	 M51.502,65.676c-0.155,0.267-0.292,0.54-0.44,0.808c0.111-0.313,0.215-0.632,0.335-0.943c0.214-0.257,0.425-0.51,0.645-0.76
	C51.858,65.078,51.674,65.372,51.502,65.676z M51.498,104.403c0.149,0.255,0.307,0.503,0.454,0.754
	c-0.193-0.226-0.39-0.448-0.58-0.678c-0.11-0.295-0.207-0.59-0.315-0.887C51.21,103.862,51.347,104.135,51.498,104.403z
	 M65.676,118.577c0.255,0.149,0.512,0.285,0.767,0.429c-0.255-0.092-0.518-0.172-0.771-0.269c-0.234-0.192-0.466-0.391-0.7-0.589
	C65.21,118.29,65.438,118.443,65.676,118.577z M84.044,123.744c0.333,0.004,0.663,0.024,0.996,0.024
	c0.338,0,0.669-0.021,0.998-0.024c-0.329,0.063-0.66,0.122-0.994,0.182C84.707,123.866,84.377,123.807,84.044,123.744z
	 M103.642,119.006c0.249-0.144,0.508-0.279,0.765-0.429c0.238-0.134,0.466-0.287,0.708-0.429c-0.231,0.198-0.466,0.396-0.706,0.589
	C104.155,118.834,103.895,118.914,103.642,119.006z M118.582,104.403c0.153-0.265,0.286-0.534,0.435-0.799
	c-0.101,0.292-0.202,0.585-0.309,0.876c-0.188,0.229-0.383,0.451-0.579,0.675C118.282,104.904,118.433,104.658,118.582,104.403z
	 M123.741,84.116c0.064,0.331,0.135,0.663,0.187,0.994c-0.058,0.344-0.122,0.687-0.188,1.031c0.009-0.367,0.027-0.73,0.027-1.103
	C123.767,84.729,123.748,84.423,123.741,84.116z M116.853,61.192c-1.307-1.34-2.685-2.623-4.139-3.844
	c-1.222-1.443-2.506-2.821-3.853-4.134c1.788,0.842,3.534,1.772,5.216,2.792C115.092,57.679,116.012,59.413,116.853,61.192z
	 M105.23,49.967c-1.968-1.609-4.032-3.092-6.188-4.429c2.722,0.226,5.406,0.64,8.028,1.247c1.852,1.984,3.564,4.096,5.113,6.33
	C109.949,51.918,107.627,50.865,105.23,49.967z M96.02,43.788c-2.648-1.431-5.408-2.653-8.258-3.661
	c3.165-0.801,6.406-1.335,9.706-1.574c2.72,1.843,5.263,3.926,7.614,6.209C102.113,44.202,99.083,43.873,96.02,43.788z
	 M92.527,43.796c-2.512,0.088-5.015,0.337-7.487,0.752c-2.475-0.415-4.971-0.664-7.489-0.752c2.421-1.142,4.923-2.119,7.489-2.911
	C87.61,41.677,90.106,42.654,92.527,43.796z M74.061,43.788c-3.062,0.085-6.09,0.414-9.058,0.974
	c2.351-2.283,4.89-4.366,7.613-6.209c3.298,0.239,6.541,0.773,9.7,1.574C79.466,41.135,76.71,42.357,74.061,43.788z M71.038,45.538
	c-2.156,1.34-4.221,2.819-6.185,4.429c-2.395,0.898-4.718,1.951-6.955,3.146c1.551-2.232,3.258-4.344,5.107-6.328
	C65.635,46.178,68.316,45.764,71.038,45.538z M61.219,53.215c-1.334,1.297-2.605,2.661-3.815,4.089
	c-1.454,1.214-2.836,2.493-4.153,3.837c0.833-1.763,1.753-3.478,2.757-5.136C57.687,54.987,59.429,54.057,61.219,53.215z
	 M46.339,83.949c-0.005,0.364-0.027,0.727-0.027,1.09c0,0.311,0.021,0.615,0.025,0.923c-0.061-0.329-0.129-0.659-0.185-0.988
	C46.208,84.631,46.276,84.29,46.339,83.949z M53.226,108.89c1.307,1.338,2.687,2.621,4.139,3.841
	c1.22,1.446,2.506,2.823,3.854,4.133c-1.79-0.845-3.532-1.768-5.212-2.79C54.992,112.403,54.068,110.669,53.226,108.89z
	 M64.854,120.115c1.964,1.607,4.028,3.09,6.185,4.427c-2.722-0.223-5.403-0.64-8.032-1.25c-1.85-1.978-3.557-4.095-5.107-6.325
	C60.131,118.164,62.459,119.217,64.854,120.115z M74.063,126.292c2.651,1.435,5.408,2.657,8.258,3.659
	c-3.163,0.803-6.406,1.337-9.704,1.578c-2.719-1.844-5.263-3.927-7.613-6.207C67.971,125.88,70.999,126.212,74.063,126.292z
	 M77.555,126.283c2.515-0.085,5.015-0.338,7.489-0.751c2.474,0.413,4.976,0.664,7.49,0.751c-2.424,1.144-4.924,2.12-7.49,2.914
	C82.474,128.404,79.972,127.428,77.555,126.283z M96.02,126.29c3.063-0.081,6.094-0.413,9.066-0.968
	c-2.355,2.276-4.898,4.361-7.618,6.205c-3.3-0.239-6.541-0.773-9.706-1.576C90.611,128.949,93.371,127.723,96.02,126.29z
	 M99.048,124.54c2.15-1.337,4.217-2.817,6.183-4.425c2.396-0.898,4.719-1.951,6.953-3.148c-1.549,2.23-3.262,4.346-5.107,6.325
	C104.448,123.901,101.766,124.318,99.048,124.54z M108.866,116.863c1.344-1.31,2.634-2.687,3.853-4.133
	c1.451-1.22,2.827-2.503,4.134-3.839c-0.841,1.779-1.765,3.512-2.779,5.182C112.396,115.096,110.653,116.019,108.866,116.863z
	 M121.598,100.665c0.504-1.775,0.92-3.585,1.249-5.427c0.65-1.777,1.203-3.571,1.676-5.389c0.155,1.941,0.226,3.884,0.178,5.817
	C123.763,97.385,122.723,99.049,121.598,100.665z M126.298,74.058c-0.083-3.019-0.408-6.047-0.976-9.058
	c2.27,2.342,4.35,4.877,6.188,7.589c-0.24,3.284-0.776,6.533-1.582,9.716C128.937,79.475,127.727,76.714,126.298,74.058z
	 M122.584,60.257c-2.304-1.98-4.762-3.792-7.363-5.396c-1.6-2.597-3.409-5.052-5.39-7.356c3.198,0.911,6.299,2.102,9.271,3.55
	C120.519,53.986,121.681,57.063,122.584,60.257z M107.893,45.354c-2.413-2.536-5.048-4.86-7.877-6.931
	c0.499-0.013,1.002-0.024,1.506-0.024c3.349,0,6.682,0.312,9.962,0.91c2.468,2.912,4.621,6.081,6.446,9.458
	C114.705,47.331,111.347,46.185,107.893,45.354z M101.521,36.82c-1.221,0-2.435,0.041-3.64,0.118
	c-3.278-2.18-6.796-4.02-10.501-5.497c4.041-1.256,8.28-2.05,12.653-2.357c3.602,2.428,6.881,5.224,9.78,8.353
	C107.07,37.03,104.303,36.82,101.521,36.82z M95.308,37.164c-3.501,0.379-6.937,1.079-10.268,2.072
	c-3.333-0.993-6.765-1.693-10.266-2.072C78,35.188,81.432,33.53,85.04,32.232C88.648,33.53,92.082,35.188,95.308,37.164z
	 M72.198,36.938c-1.205-0.077-2.421-0.118-3.637-0.118c-2.773,0-5.535,0.21-8.271,0.61c2.862-3.101,6.133-5.9,9.757-8.347
	c4.371,0.308,8.61,1.102,12.651,2.357C78.996,32.919,75.481,34.759,72.198,36.938z M68.562,38.399c0.503,0,1.002,0.012,1.508,0.024
	c-2.834,2.07-5.469,4.395-7.879,6.931c-3.443,0.828-6.784,1.967-9.996,3.394c1.804-3.336,3.96-6.503,6.447-9.446
	C61.908,38.708,65.229,38.399,68.562,38.399z M60.249,47.504c-1.976,2.305-3.784,4.76-5.39,7.356
	c-2.589,1.598-5.035,3.394-7.33,5.365c0.893-3.151,2.053-6.23,3.486-9.189C53.976,49.594,57.065,48.411,60.249,47.504z
	 M44.796,64.961c-0.554,2.951-0.889,5.946-0.979,8.961c-1.439,2.657-2.663,5.445-3.683,8.337c-0.795-3.169-1.327-6.403-1.563-9.67
	C40.421,69.862,42.509,67.317,44.796,64.961z M43.817,77.434c0.079,2.512,0.323,5.026,0.738,7.531
	c-0.423,2.491-0.688,5.004-0.773,7.531c-1.139-2.43-2.104-4.937-2.885-7.5C41.692,82.387,42.675,79.861,43.817,77.434z
	 M43.782,96.023c0.083,3.021,0.415,6.046,0.98,9.06c-2.285-2.355-4.371-4.901-6.216-7.626c0.24-3.253,0.771-6.505,1.588-9.728
	C41.134,90.577,42.345,93.354,43.782,96.023z M47.496,109.821c2.306,1.984,4.76,3.794,7.361,5.397
	c1.607,2.6,3.411,5.055,5.392,7.361c-3.198-0.914-6.301-2.104-9.272-3.553C49.563,116.096,48.396,113.017,47.496,109.821z
	 M62.19,124.726c2.41,2.539,5.045,4.862,7.879,6.931c-0.506,0.011-1.005,0.024-1.508,0.024c-3.35,0-6.685-0.312-9.967-0.909
	c-2.468-2.914-4.619-6.082-6.446-9.456C55.373,122.747,58.733,123.896,62.19,124.726z M68.562,133.261
	c1.216,0,2.432-0.042,3.641-0.119c3.281,2.18,6.798,4.018,10.497,5.499c-4.043,1.254-8.28,2.05-12.653,2.356
	c-3.604-2.429-6.883-5.224-9.782-8.354C63.006,133.05,65.775,133.261,68.562,133.261z M74.774,132.919
	c3.501-0.382,6.941-1.081,10.27-2.075c3.329,0.994,6.763,1.693,10.264,2.072c-3.221,1.977-6.659,3.631-10.268,4.931
	C81.432,136.547,78,134.893,74.774,132.919z M97.882,133.142c1.205,0.077,2.419,0.119,3.64,0.119c2.771,0,5.536-0.211,8.271-0.61
	c-2.865,3.1-6.131,5.899-9.758,8.347c-4.373-0.309-8.612-1.103-12.653-2.356C91.086,137.159,94.604,135.316,97.882,133.142z
	 M101.521,131.681c-0.504,0-1.007-0.014-1.506-0.024c2.833-2.07,5.468-4.394,7.877-6.932c3.44-0.825,6.785-1.965,9.996-3.394
	c-1.811,3.34-3.965,6.507-6.446,9.447C108.174,131.371,104.855,131.681,101.521,131.681z M109.833,122.577
	c1.98-2.304,3.788-4.759,5.388-7.358c2.589-1.593,5.035-3.394,7.332-5.366c-0.896,3.151-2.057,6.231-3.488,9.189
	C116.106,120.486,113.015,121.668,109.833,122.577z M125.282,105.119c0.562-2.976,0.894-5.993,0.986-9.033
	c1.443-2.675,2.661-5.455,3.66-8.312c0.806,3.185,1.342,6.433,1.582,9.718C129.659,100.217,127.573,102.764,125.282,105.119z
	 M130.817,85.039c1-3.36,1.696-6.81,2.075-10.303c1.986,3.231,3.647,6.68,4.952,10.303c-1.305,3.619-2.966,7.072-4.952,10.305
	C132.514,91.849,131.817,88.401,130.817,85.039z M133.116,72.16c0.246-3.934,0.089-7.907-0.482-11.856
	c3.125,2.887,5.94,6.142,8.363,9.723c-0.302,4.378-1.1,8.625-2.359,12.673C137.155,78.98,135.304,75.449,133.116,72.16z
	 M130.291,56.235c-3.106-2.452-6.454-4.585-9.994-6.352c-1.771-3.59-3.917-6.958-6.384-10.079c4.166,0.951,8.222,2.377,12.08,4.254
	C127.922,48.012,129.358,52.096,130.291,56.235z M112.309,37.854c-2.854-3.304-6.096-6.286-9.678-8.893
	c0.458-0.012,0.914-0.034,1.378-0.034c4.327,0,8.54,0.509,12.591,1.441c2.867,3.067,5.41,6.477,7.552,10.191
	c0.232,0.398,0.438,0.805,0.657,1.207C120.794,39.993,116.602,38.679,112.309,37.854z M96.67,26.962
	c0.4,0.229,0.781,0.479,1.173,0.716c-4.435,0.475-8.723,1.46-12.803,2.886c-4.082-1.426-8.368-2.411-12.805-2.886
	c0.392-0.237,0.774-0.487,1.173-0.716c3.688-2.132,7.593-3.824,11.628-5.063C89.077,23.138,92.983,24.83,96.67,26.962z
	 M66.073,28.927c0.46,0,0.912,0.022,1.376,0.034c-3.601,2.625-6.814,5.614-9.632,8.886c-4.313,0.823-8.517,2.139-12.548,3.924
	c0.218-0.403,0.429-0.813,0.659-1.215c2.142-3.711,4.685-7.122,7.554-10.188C57.531,29.436,61.745,28.927,66.073,28.927z
	 M56.212,39.798c-2.477,3.141-4.61,6.511-6.364,10.053c-3.563,1.772-6.935,3.919-10.059,6.385c0.935-4.14,2.367-8.224,4.294-12.175
	C47.96,42.177,52.034,40.747,56.212,39.798z M37.446,60.306c-0.571,3.95-0.729,7.921-0.479,11.854
	c-2.191,3.289-4.043,6.82-5.525,10.539c-1.262-4.046-2.053-8.29-2.359-12.669C31.509,66.449,34.319,63.193,37.446,60.306z
	 M37.186,74.736c0.379,3.478,1.073,6.912,2.065,10.257c-0.153,0.513-0.315,1.022-0.454,1.539c-0.778,2.904-1.319,5.83-1.643,8.762
	c-1.968-3.218-3.622-6.653-4.921-10.253C33.54,81.421,35.203,77.97,37.186,74.736z M36.925,97.861
	c-0.255,3.982-0.083,7.959,0.482,11.881c-3.113-2.877-5.911-6.123-8.324-9.689c0.307-4.378,1.098-8.624,2.359-12.67
	C32.915,91.077,34.754,94.587,36.925,97.861z M39.767,113.83c3.117,2.459,6.473,4.594,10.017,6.367
	c1.771,3.589,3.917,6.959,6.382,10.076c-4.164-0.947-8.219-2.375-12.082-4.254C42.165,122.097,40.722,118.011,39.767,113.83z
	 M57.771,132.227c2.853,3.304,6.092,6.287,9.678,8.893c-0.464,0.012-0.916,0.034-1.376,0.034c-4.328,0-8.542-0.508-12.591-1.441
	c-2.869-3.065-5.408-6.475-7.554-10.189c-0.23-0.397-0.441-0.806-0.661-1.21C49.279,130.09,53.48,131.401,57.771,132.227z
	 M73.41,143.118c-0.4-0.229-0.783-0.479-1.177-0.716c4.438-0.475,8.725-1.459,12.807-2.886c4.085,1.427,8.37,2.411,12.807,2.886
	c-0.394,0.237-0.774,0.487-1.177,0.716c-3.685,2.134-7.591,3.825-11.63,5.063C81.007,146.943,77.101,145.25,73.41,143.118z
	 M104.009,141.153c-0.464,0-0.918-0.022-1.378-0.034c3.603-2.625,6.814-5.613,9.636-8.886c4.309-0.823,8.52-2.141,12.55-3.923
	c-0.226,0.404-0.433,0.811-0.665,1.212c-2.142,3.714-4.683,7.122-7.55,10.189C112.549,140.646,108.34,141.153,104.009,141.153z
	 M113.874,130.285c2.476-3.146,4.604-6.517,6.361-10.056c3.558-1.776,6.935-3.92,10.058-6.387c-0.93,4.141-2.371,8.224-4.298,12.177
	C122.122,127.907,118.05,129.335,113.874,130.285z M132.634,109.774c0.571-3.95,0.729-7.92,0.482-11.854
	c2.188-3.29,4.039-6.822,5.521-10.541c1.26,4.048,2.058,8.291,2.363,12.669C138.574,103.63,135.761,106.887,132.634,109.774z
	 M139.515,85.039c1.429-4.088,2.417-8.379,2.891-12.825c0.238,0.396,0.483,0.79,0.715,1.194c2.169,3.751,3.828,7.656,5.046,11.631
	c-1.218,3.978-2.877,7.882-5.048,11.631c-0.229,0.403-0.468,0.797-0.713,1.191C141.932,93.419,140.943,89.126,139.515,85.039z
	 M144.489,72.617c-0.592-1.029-1.22-2.031-1.876-3.016c0.072-1.168,0.122-2.34,0.122-3.527c0-3.595-0.342-7.133-0.98-10.59
	c3.509,3.622,6.485,7.654,8.857,11.986c0.107,4.946-0.449,9.93-1.682,14.83C147.769,78.999,146.302,75.756,144.489,72.617z
	 M130.313,44.559c-1.029-0.595-2.071-1.149-3.132-1.68c-0.523-1.049-1.066-2.086-1.661-3.11c-1.796-3.114-3.873-6.014-6.174-8.694
	c4.884,1.391,9.507,3.414,13.753,5.998c2.589,4.274,4.575,8.872,5.93,13.675C136.364,48.461,133.46,46.375,130.313,44.559z
	 M102.961,17.879c-4.163-2.25-8.603-3.987-13.221-5.168c1.601-0.142,3.216-0.22,4.84-0.22c3.285,0,6.56,0.3,9.783,0.874
	c4.521,1.657,8.813,3.903,12.79,6.691C112.575,18.755,107.812,18.011,102.961,17.879z M99.471,17.889
	c-4.898,0.165-9.747,0.965-14.435,2.361c-4.684-1.396-9.532-2.196-14.427-2.361c4.555-2.152,9.41-3.705,14.435-4.574
	C90.065,14.184,94.914,15.736,99.471,17.889z M67.115,17.879c-4.813,0.13-9.544,0.867-14.093,2.151
	c3.938-2.746,8.233-5.011,12.819-6.688c3.182-0.559,6.414-0.851,9.662-0.851c1.626,0,3.239,0.078,4.845,0.22
	C75.724,13.892,71.285,15.629,67.115,17.879z M50.731,31.074c-2.301,2.679-4.376,5.577-6.172,8.693
	c-0.595,1.025-1.142,2.067-1.663,3.113c-1.057,0.528-2.103,1.085-3.13,1.678c-3.111,1.798-6.007,3.859-8.681,6.143
	c1.384-4.853,3.391-9.44,5.955-13.666C41.269,34.468,45.872,32.46,50.731,31.074z M26.958,73.41
	c0.231-0.404,0.477-0.799,0.719-1.193c0.47,4.447,1.458,8.735,2.889,12.824c-1.429,4.089-2.419,8.382-2.889,12.824
	c-0.242-0.395-0.487-0.789-0.719-1.195c-2.169-3.757-3.836-7.671-5.054-11.653C23.139,81.015,24.816,77.123,26.958,73.41z
	 M39.767,125.522c1.027,0.592,2.073,1.151,3.132,1.676c0.521,1.052,1.07,2.094,1.661,3.117c1.796,3.113,3.873,6.014,6.172,8.69
	c-4.882-1.391-9.503-3.412-13.749-5.994c-2.591-4.278-4.577-8.873-5.932-13.677C33.716,121.622,36.616,123.705,39.767,125.522z
	 M67.117,152.203c4.168,2.25,8.606,3.991,13.231,5.171c-1.605,0.138-3.221,0.217-4.845,0.217c-3.287,0-6.562-0.3-9.778-0.876
	c-4.525-1.654-8.815-3.903-12.794-6.688C57.507,151.325,62.267,152.071,67.117,152.203z M70.609,152.195
	c4.898-0.169,9.745-0.969,14.435-2.365c4.686,1.396,9.536,2.196,14.429,2.361c-4.559,2.153-9.407,3.703-14.433,4.574
	C80.016,155.895,75.164,154.345,70.609,152.195z M102.963,152.201c4.821-0.13,9.553-0.867,14.099-2.15
	c-3.938,2.745-8.235,5.01-12.816,6.688c-3.186,0.559-6.421,0.853-9.665,0.853c-1.628,0-3.241-0.079-4.845-0.217
	C94.358,156.194,98.798,154.453,102.963,152.201z M119.351,139.004c2.299-2.678,4.374-5.575,6.17-8.688
	c0.595-1.028,1.138-2.07,1.666-3.117c1.056-0.529,2.098-1.084,3.127-1.678c3.111-1.797,6.007-3.86,8.686-6.144
	c-1.386,4.854-3.394,9.441-5.955,13.666C128.81,135.61,124.214,137.619,119.351,139.004z M142.617,100.473
	c0.652-0.979,1.28-1.982,1.872-3.012c1.813-3.139,3.279-6.382,4.441-9.684c1.238,4.921,1.795,9.93,1.682,14.898
	c-2.407,4.381-5.396,8.396-8.876,11.972c0.645-3.45,0.999-7.003,0.999-10.641C142.735,102.819,142.686,101.644,142.617,100.473z
	 M150.42,64.018c-2.559-4.113-5.655-7.932-9.255-11.346c-1.131-4.774-2.853-9.371-5.153-13.685c4.151,2.892,7.894,6.321,11.127,10.2
	C148.893,53.955,149.993,58.946,150.42,64.018z M134.249,35.932c-2.351-3.822-5.157-7.401-8.413-10.654
	c-0.157-0.158-0.323-0.307-0.485-0.462c4.41,2.081,8.538,4.72,12.271,7.864c3.101,3.722,5.659,7.807,7.679,12.123
	C141.998,41.417,138.29,38.432,134.249,35.932z M32.457,32.68c3.759-3.16,7.914-5.818,12.347-7.901
	c-3.401,3.317-6.404,7.048-8.908,11.115c-4.068,2.504-7.795,5.504-11.112,8.905C26.801,40.484,29.362,36.398,32.457,32.68z
	 M34.151,38.931c-2.291,4.271-4.05,8.86-5.205,13.688c-3.571,3.366-6.688,7.156-9.275,11.307c0.431-5.041,1.526-10.002,3.272-14.739
	C26.193,45.281,29.968,41.83,34.151,38.931z M14.414,80.001c0.885-3.307,2.063-6.482,3.492-9.513
	c0.149,4.865,0.93,9.742,2.345,14.522c-1.41,4.697-2.212,9.54-2.38,14.429c-2.156-4.6-3.691-9.471-4.549-14.469
	C13.612,83.309,13.971,81.649,14.414,80.001z M21.354,115.988c-0.884-3.303-1.449-6.646-1.729-9.985
	c2.562,4.137,5.675,7.977,9.287,11.406c1.131,4.776,2.858,9.371,5.159,13.688c-4.169-2.907-7.933-6.357-11.177-10.256
	C22.318,119.253,21.798,117.641,21.354,115.988z M35.833,134.149c2.354,3.821,5.155,7.401,8.411,10.655
	c0.158,0.16,0.325,0.305,0.485,0.458c-4.441-2.091-8.596-4.759-12.354-7.928c-3.057-3.681-5.625-7.749-7.659-12.125
	C28.037,128.625,31.765,131.635,35.833,134.149z M137.627,137.398c-3.761,3.162-7.916,5.82-12.351,7.903
	c3.405-3.316,6.404-7.047,8.91-11.113c4.066-2.508,7.795-5.508,11.113-8.911C143.284,129.596,140.722,133.679,137.627,137.398z
	 M135.936,131.146c2.286-4.27,4.038-8.862,5.198-13.684c3.571-3.367,6.688-7.158,9.273-11.31c-0.427,5.04-1.524,9.999-3.269,14.737
	C143.885,124.795,140.115,128.243,135.936,131.146z M152.174,103.101c2.132-3.948,3.832-8.167,5.022-12.611
	c0.059-0.215,0.102-0.433,0.155-0.651c0.404,4.774,0.22,9.617-0.617,14.412c-1.682,4.598-3.958,8.907-6.717,12.856
	C151.3,112.555,152.029,107.85,152.174,103.101z M158.362,85.122c0.585-3.441,0.844-6.899,0.804-10.343
	c0.62,3.331,0.953,6.756,0.953,10.26c0,3.57-0.346,7.059-0.988,10.444C159.183,92.004,158.931,88.536,158.362,85.122z
	 M150.803,48.851c0.147,0.277,0.307,0.553,0.451,0.832c0.104,0.19,0.195,0.387,0.299,0.578c1.131,2.234,2.098,4.523,2.916,6.852
	c-1.717-3.091-3.701-6.015-5.94-8.729c-1.216-3.259-2.74-6.407-4.532-9.412c1.407,1.636,2.734,3.359,3.956,5.165
	C148.953,45.673,149.91,47.24,150.803,48.851z M26.086,38.972c-1.796,3.005-3.314,6.153-4.534,9.41
	c-2.216,2.69-4.188,5.593-5.898,8.658c0.797-2.275,1.739-4.524,2.852-6.728c0.1-0.189,0.194-0.386,0.296-0.578
	c0.158-0.302,0.325-0.597,0.489-0.896c0.891-1.611,1.846-3.186,2.85-4.725C23.362,42.317,24.682,40.6,26.086,38.972z M19.27,121.206
	c-0.144-0.262-0.294-0.522-0.429-0.787c-0.112-0.205-0.214-0.417-0.321-0.624c-1.127-2.225-2.092-4.504-2.906-6.82
	c1.703,3.063,3.673,5.965,5.887,8.658c1.212,3.264,2.713,6.381,4.464,9.333c-1.363-1.588-2.642-3.259-3.83-5.009
	C21.123,124.409,20.166,122.832,19.27,121.206z M144.001,131.105c1.787-3.004,3.312-6.152,4.527-9.411
	c2.221-2.688,4.192-5.592,5.903-8.655c-0.806,2.29-1.75,4.548-2.871,6.764c-0.087,0.166-0.172,0.337-0.259,0.504
	c-0.17,0.327-0.354,0.652-0.534,0.977c-0.881,1.593-1.823,3.142-2.811,4.659C146.73,127.75,145.409,129.471,144.001,131.105z"/>
</svg>
